<svg xmlns="http://www.w3.org/2000/svg" xmlns:xlink="http://www.w3.org/1999/xlink" width="157" zoomAndPan="magnify" viewBox="0 0 117.75 30.000001" height="40" preserveAspectRatio="xMidYMid meet" version="1.0"><defs><g/><clipPath id="d074019665"><path d="M 17.335938 14 L 46.429688 14 L 46.429688 17 L 17.335938 17 Z M 17.335938 14 " clip-rule="nonzero"/></clipPath><clipPath id="d5687015e6"><path d="M 17.335938 16 L 46.429688 16 L 46.429688 19 L 17.335938 19 Z M 17.335938 16 " clip-rule="nonzero"/></clipPath><clipPath id="fc275f906b"><path d="M 27 28 L 36 28 L 36 29.03125 L 27 29.03125 Z M 27 28 " clip-rule="nonzero"/></clipPath><clipPath id="d3b112e562"><path d="M 17.335938 0 L 46.429688 0 L 46.429688 14 L 17.335938 14 Z M 17.335938 0 " clip-rule="nonzero"/></clipPath><clipPath id="69b24339e9"><path d="M 17.335938 0 L 46.429688 0 L 46.429688 14 L 17.335938 14 Z M 17.335938 0 " clip-rule="nonzero"/></clipPath><clipPath id="e9b6a91a83"><path d="M 17.335938 14 L 46.429688 14 L 46.429688 17 L 17.335938 17 Z M 17.335938 14 " clip-rule="nonzero"/></clipPath><clipPath id="e1ff9214eb"><path d="M 17.335938 16 L 46.429688 16 L 46.429688 19 L 17.335938 19 Z M 17.335938 16 " clip-rule="nonzero"/></clipPath><clipPath id="96371d0aff"><path d="M 27 28 L 36 28 L 36 29.03125 L 27 29.03125 Z M 27 28 " clip-rule="nonzero"/></clipPath><clipPath id="d40a9170f2"><path d="M 17.335938 12 L 19 12 L 19 14 L 17.335938 14 Z M 17.335938 12 " clip-rule="nonzero"/></clipPath><clipPath id="f35ea1cd70"><path d="M 17.335938 11 L 19 11 L 19 13 L 17.335938 13 Z M 17.335938 11 " clip-rule="nonzero"/></clipPath><clipPath id="a660a4e53d"><path d="M 45 12 L 46.429688 12 L 46.429688 13 L 45 13 Z M 45 12 " clip-rule="nonzero"/></clipPath><clipPath id="8f9c56ea6b"><path d="M 17.335938 12 L 46.429688 12 L 46.429688 14 L 17.335938 14 Z M 17.335938 12 " clip-rule="nonzero"/></clipPath><clipPath id="602730923b"><path d="M 17.335938 10 L 46.429688 10 L 46.429688 13 L 17.335938 13 Z M 17.335938 10 " clip-rule="nonzero"/></clipPath><clipPath id="162575786f"><path d="M 17.335938 17 L 19 17 L 19 19 L 17.335938 19 Z M 17.335938 17 " clip-rule="nonzero"/></clipPath><clipPath id="74570b0c36"><path d="M 45 16 L 46.429688 16 L 46.429688 18 L 45 18 Z M 45 16 " clip-rule="nonzero"/></clipPath><clipPath id="7589ca20b7"><path d="M 45 14 L 46.429688 14 L 46.429688 16 L 45 16 Z M 45 14 " clip-rule="nonzero"/></clipPath></defs><g clip-path="url(#d074019665)"><path fill="#ff7f07" d="M 44.8125 14.546875 L 17.335938 14.546875 L 17.335938 16.164062 L 46.429688 16.164062 L 46.429688 14.546875 Z M 44.8125 14.546875 " fill-opacity="1" fill-rule="nonzero"/></g><g clip-path="url(#d5687015e6)"><path fill="#ff7f07" d="M 44.8125 16.972656 L 17.335938 16.972656 L 17.335938 18.585938 L 46.429688 18.585938 L 46.429688 16.972656 Z M 44.8125 16.972656 " fill-opacity="1" fill-rule="nonzero"/></g><path fill="#ff7f07" d="M 42.386719 22.628906 L 19.761719 22.628906 L 19.761719 23.4375 L 20.566406 23.4375 L 20.566406 24.246094 L 43.195312 24.246094 L 43.195312 23.4375 L 44.003906 23.4375 L 44.003906 22.628906 Z M 42.386719 22.628906 " fill-opacity="1" fill-rule="nonzero"/><path fill="#ff7f07" d="M 39.15625 25.859375 L 22.992188 25.859375 L 22.992188 26.667969 L 23.800781 26.667969 L 23.800781 27.476562 L 39.964844 27.476562 L 39.964844 26.667969 L 40.773438 26.667969 L 40.773438 25.859375 Z M 39.15625 25.859375 " fill-opacity="1" fill-rule="nonzero"/><g clip-path="url(#fc275f906b)"><path fill="#ff7f07" d="M 27.839844 28.285156 L 35.921875 28.285156 L 35.921875 29.09375 L 27.839844 29.09375 Z M 27.839844 28.285156 " fill-opacity="1" fill-rule="nonzero"/></g><g clip-path="url(#d3b112e562)"><path fill="#ff7f07" d="M 45.621094 10.507812 L 45.621094 8.082031 L 44.8125 8.082031 L 44.8125 6.464844 L 44.003906 6.464844 L 44.003906 5.65625 L 43.195312 5.65625 L 43.195312 4.847656 L 42.386719 4.847656 L 42.386719 4.039062 L 41.582031 4.039062 L 41.582031 3.234375 L 40.773438 3.234375 L 40.773438 2.425781 L 39.964844 2.425781 L 39.964844 1.617188 L 38.347656 1.617188 L 38.347656 0.808594 L 35.921875 0.808594 L 35.921875 0 L 27.839844 0 L 27.839844 0.808594 L 25.417969 0.808594 L 25.417969 1.617188 L 23.800781 1.617188 L 23.800781 2.425781 L 22.992188 2.425781 L 22.992188 3.234375 L 22.183594 3.234375 L 22.183594 4.039062 L 21.375 4.039062 L 21.375 4.847656 L 20.566406 4.847656 L 20.566406 5.65625 L 19.761719 5.65625 L 19.761719 6.464844 L 18.953125 6.464844 L 18.953125 8.082031 L 18.144531 8.082031 L 18.144531 10.507812 L 17.335938 10.507812 L 17.335938 13.738281 L 46.429688 13.738281 L 46.429688 10.507812 Z M 45.621094 10.507812 " fill-opacity="1" fill-rule="nonzero"/></g><path fill="#ff7f07" d="M 44.003906 19.394531 L 18.144531 19.394531 L 18.144531 20.203125 L 18.953125 20.203125 L 18.953125 21.011719 L 44.8125 21.011719 L 44.8125 20.203125 L 45.621094 20.203125 L 45.621094 19.394531 Z M 44.003906 19.394531 " fill-opacity="1" fill-rule="nonzero"/><g clip-path="url(#69b24339e9)"><path fill="#ffd100" d="M 45.621094 10.507812 L 45.621094 8.082031 L 44.8125 8.082031 L 44.8125 6.464844 L 44.003906 6.464844 L 44.003906 5.65625 L 43.195312 5.65625 L 43.195312 4.847656 L 42.386719 4.847656 L 42.386719 4.039062 L 41.582031 4.039062 L 41.582031 3.234375 L 40.773438 3.234375 L 40.773438 2.425781 L 39.964844 2.425781 L 39.964844 1.617188 L 38.347656 1.617188 L 38.347656 0.808594 L 35.921875 0.808594 L 35.921875 0 L 27.839844 0 L 27.839844 0.808594 L 25.417969 0.808594 L 25.417969 1.617188 L 23.800781 1.617188 L 23.800781 2.425781 L 22.992188 2.425781 L 22.992188 3.234375 L 22.183594 3.234375 L 22.183594 4.039062 L 21.375 4.039062 L 21.375 4.847656 L 20.566406 4.847656 L 20.566406 5.65625 L 19.761719 5.65625 L 19.761719 6.464844 L 18.953125 6.464844 L 18.953125 8.082031 L 18.144531 8.082031 L 18.144531 10.507812 L 17.335938 10.507812 L 17.335938 13.738281 L 46.429688 13.738281 L 46.429688 10.507812 Z M 45.621094 10.507812 " fill-opacity="1" fill-rule="nonzero"/></g><path fill="#ff0070" d="M 18.953125 19.394531 L 18.953125 20.203125 L 18.144531 20.203125 L 18.144531 19.394531 Z M 18.953125 19.394531 " fill-opacity="1" fill-rule="nonzero"/><path fill="#ff0070" d="M 19.761719 22.628906 L 20.566406 22.628906 L 20.566406 23.4375 L 19.761719 23.4375 Z M 19.761719 22.628906 " fill-opacity="1" fill-rule="nonzero"/><path fill="#ff0070" d="M 20.566406 23.4375 L 21.375 23.4375 L 21.375 24.246094 L 20.566406 24.246094 Z M 20.566406 23.4375 " fill-opacity="1" fill-rule="nonzero"/><path fill="#ff0070" d="M 45.621094 19.394531 L 45.621094 20.203125 L 44.8125 20.203125 L 44.8125 19.394531 Z M 45.621094 19.394531 " fill-opacity="1" fill-rule="nonzero"/><path fill="#ff0070" d="M 44.003906 23.4375 L 43.195312 23.4375 L 43.195312 22.628906 L 44.003906 22.628906 Z M 44.003906 23.4375 " fill-opacity="1" fill-rule="nonzero"/><path fill="#ff0070" d="M 43.195312 24.246094 L 42.386719 24.246094 L 42.386719 23.4375 L 43.195312 23.4375 Z M 43.195312 24.246094 " fill-opacity="1" fill-rule="nonzero"/><g clip-path="url(#e9b6a91a83)"><path fill="#ff7f07" d="M 17.335938 14.546875 L 46.429688 14.546875 L 46.429688 16.164062 L 17.335938 16.164062 Z M 17.335938 14.546875 " fill-opacity="1" fill-rule="nonzero"/></g><g clip-path="url(#e1ff9214eb)"><path fill="#ff7f07" d="M 17.335938 16.972656 L 46.429688 16.972656 L 46.429688 18.585938 L 17.335938 18.585938 Z M 17.335938 16.972656 " fill-opacity="1" fill-rule="nonzero"/></g><path fill="#ff0070" d="M 18.953125 19.394531 L 45.621094 19.394531 L 45.621094 20.203125 L 18.953125 20.203125 Z M 18.953125 19.394531 " fill-opacity="1" fill-rule="nonzero"/><path fill="#ff0070" d="M 18.953125 20.203125 L 44.8125 20.203125 L 44.8125 21.011719 L 18.953125 21.011719 Z M 18.953125 20.203125 " fill-opacity="1" fill-rule="nonzero"/><path fill="#ff0070" d="M 20.566406 22.628906 L 43.195312 22.628906 L 43.195312 24.246094 L 20.566406 24.246094 Z M 20.566406 22.628906 " fill-opacity="1" fill-rule="nonzero"/><path fill="#f20040" d="M 39.964844 25.859375 L 22.992188 25.859375 L 22.992188 26.667969 L 23.800781 26.667969 L 23.800781 27.476562 L 39.964844 27.476562 L 39.964844 26.667969 L 40.773438 26.667969 L 40.773438 25.859375 Z M 39.964844 25.859375 " fill-opacity="1" fill-rule="nonzero"/><g clip-path="url(#96371d0aff)"><path fill="#f20040" d="M 27.839844 28.285156 L 35.921875 28.285156 L 35.921875 29.09375 L 27.839844 29.09375 Z M 27.839844 28.285156 " fill-opacity="1" fill-rule="nonzero"/></g><g clip-path="url(#d40a9170f2)"><path fill="#ff7f07" d="M 17.335938 12.929688 L 18.144531 12.929688 L 18.144531 13.738281 L 17.335938 13.738281 Z M 17.335938 12.929688 " fill-opacity="1" fill-rule="nonzero"/></g><path fill="#ff7f07" d="M 18.144531 12.121094 L 18.953125 12.121094 L 18.953125 12.929688 L 18.144531 12.929688 Z M 18.144531 12.121094 " fill-opacity="1" fill-rule="nonzero"/><g clip-path="url(#f35ea1cd70)"><path fill="#ff7f07" d="M 17.335938 11.3125 L 18.144531 11.3125 L 18.144531 12.121094 L 17.335938 12.121094 Z M 17.335938 11.3125 " fill-opacity="0.498" fill-rule="nonzero"/></g><path fill="#ff7f07" d="M 18.953125 11.3125 L 19.761719 11.3125 L 19.761719 12.121094 L 18.953125 12.121094 Z M 18.953125 11.3125 " fill-opacity="0.498" fill-rule="nonzero"/><path fill="#ff7f07" d="M 20.566406 11.3125 L 21.375 11.3125 L 21.375 12.121094 L 20.566406 12.121094 Z M 20.566406 11.3125 " fill-opacity="0.498" fill-rule="nonzero"/><path fill="#ff7f07" d="M 22.183594 11.3125 L 22.992188 11.3125 L 22.992188 12.121094 L 22.183594 12.121094 Z M 22.183594 11.3125 " fill-opacity="0.498" fill-rule="nonzero"/><path fill="#ff7f07" d="M 23.800781 11.3125 L 24.609375 11.3125 L 24.609375 12.121094 L 23.800781 12.121094 Z M 23.800781 11.3125 " fill-opacity="0.498" fill-rule="nonzero"/><path fill="#ff7f07" d="M 25.417969 11.3125 L 26.226562 11.3125 L 26.226562 12.121094 L 25.417969 12.121094 Z M 25.417969 11.3125 " fill-opacity="0.498" fill-rule="nonzero"/><path fill="#ff7f07" d="M 27.035156 11.3125 L 27.839844 11.3125 L 27.839844 12.121094 L 27.035156 12.121094 Z M 27.035156 11.3125 " fill-opacity="0.498" fill-rule="nonzero"/><path fill="#ff7f07" d="M 28.648438 11.3125 L 29.457031 11.3125 L 29.457031 12.121094 L 28.648438 12.121094 Z M 28.648438 11.3125 " fill-opacity="0.498" fill-rule="nonzero"/><path fill="#ff7f07" d="M 30.265625 11.3125 L 31.074219 11.3125 L 31.074219 12.121094 L 30.265625 12.121094 Z M 30.265625 11.3125 " fill-opacity="0.498" fill-rule="nonzero"/><path fill="#ff7f07" d="M 31.882812 11.3125 L 32.691406 11.3125 L 32.691406 12.121094 L 31.882812 12.121094 Z M 31.882812 11.3125 " fill-opacity="0.498" fill-rule="nonzero"/><path fill="#ff7f07" d="M 33.5 11.3125 L 34.308594 11.3125 L 34.308594 12.121094 L 33.5 12.121094 Z M 33.5 11.3125 " fill-opacity="0.498" fill-rule="nonzero"/><path fill="#ff7f07" d="M 35.113281 11.3125 L 35.921875 11.3125 L 35.921875 12.121094 L 35.113281 12.121094 Z M 35.113281 11.3125 " fill-opacity="0.498" fill-rule="nonzero"/><path fill="#ff7f07" d="M 36.730469 11.3125 L 37.539062 11.3125 L 37.539062 12.121094 L 36.730469 12.121094 Z M 36.730469 11.3125 " fill-opacity="0.498" fill-rule="nonzero"/><path fill="#ff7f07" d="M 38.347656 11.3125 L 39.15625 11.3125 L 39.15625 12.121094 L 38.347656 12.121094 Z M 38.347656 11.3125 " fill-opacity="0.498" fill-rule="nonzero"/><path fill="#ff7f07" d="M 39.964844 11.3125 L 40.773438 11.3125 L 40.773438 12.121094 L 39.964844 12.121094 Z M 39.964844 11.3125 " fill-opacity="0.498" fill-rule="nonzero"/><path fill="#ff7f07" d="M 41.582031 11.3125 L 42.386719 11.3125 L 42.386719 12.121094 L 41.582031 12.121094 Z M 41.582031 11.3125 " fill-opacity="0.498" fill-rule="nonzero"/><path fill="#ff7f07" d="M 43.195312 11.3125 L 44.003906 11.3125 L 44.003906 12.121094 L 43.195312 12.121094 Z M 43.195312 11.3125 " fill-opacity="0.498" fill-rule="nonzero"/><path fill="#ff7f07" d="M 44.8125 11.3125 L 45.621094 11.3125 L 45.621094 12.121094 L 44.8125 12.121094 Z M 44.8125 11.3125 " fill-opacity="0.498" fill-rule="nonzero"/><path fill="#ff7f07" d="M 18.953125 9.699219 L 19.761719 9.699219 L 19.761719 10.507812 L 18.953125 10.507812 Z M 18.953125 9.699219 " fill-opacity="0.498" fill-rule="nonzero"/><path fill="#ff7f07" d="M 20.566406 9.699219 L 21.375 9.699219 L 21.375 10.507812 L 20.566406 10.507812 Z M 20.566406 9.699219 " fill-opacity="0.498" fill-rule="nonzero"/><path fill="#ff7f07" d="M 22.183594 9.699219 L 22.992188 9.699219 L 22.992188 10.507812 L 22.183594 10.507812 Z M 22.183594 9.699219 " fill-opacity="0.498" fill-rule="nonzero"/><path fill="#ff7f07" d="M 23.800781 9.699219 L 24.609375 9.699219 L 24.609375 10.507812 L 23.800781 10.507812 Z M 23.800781 9.699219 " fill-opacity="0.498" fill-rule="nonzero"/><path fill="#ff7f07" d="M 25.417969 9.699219 L 26.226562 9.699219 L 26.226562 10.507812 L 25.417969 10.507812 Z M 25.417969 9.699219 " fill-opacity="0.498" fill-rule="nonzero"/><path fill="#ff7f07" d="M 27.035156 9.699219 L 27.839844 9.699219 L 27.839844 10.507812 L 27.035156 10.507812 Z M 27.035156 9.699219 " fill-opacity="0.498" fill-rule="nonzero"/><path fill="#ff7f07" d="M 28.648438 9.699219 L 29.457031 9.699219 L 29.457031 10.507812 L 28.648438 10.507812 Z M 28.648438 9.699219 " fill-opacity="0.498" fill-rule="nonzero"/><path fill="#ff7f07" d="M 30.265625 9.699219 L 31.074219 9.699219 L 31.074219 10.507812 L 30.265625 10.507812 Z M 30.265625 9.699219 " fill-opacity="0.498" fill-rule="nonzero"/><path fill="#ff7f07" d="M 31.882812 9.699219 L 32.691406 9.699219 L 32.691406 10.507812 L 31.882812 10.507812 Z M 31.882812 9.699219 " fill-opacity="0.498" fill-rule="nonzero"/><path fill="#ff7f07" d="M 33.5 9.699219 L 34.308594 9.699219 L 34.308594 10.507812 L 33.5 10.507812 Z M 33.5 9.699219 " fill-opacity="0.498" fill-rule="nonzero"/><path fill="#ff7f07" d="M 35.113281 9.699219 L 35.921875 9.699219 L 35.921875 10.507812 L 35.113281 10.507812 Z M 35.113281 9.699219 " fill-opacity="0.498" fill-rule="nonzero"/><path fill="#ff7f07" d="M 36.730469 9.699219 L 37.539062 9.699219 L 37.539062 10.507812 L 36.730469 10.507812 Z M 36.730469 9.699219 " fill-opacity="0.498" fill-rule="nonzero"/><path fill="#ff7f07" d="M 38.347656 9.699219 L 39.15625 9.699219 L 39.15625 10.507812 L 38.347656 10.507812 Z M 38.347656 9.699219 " fill-opacity="0.498" fill-rule="nonzero"/><path fill="#ff7f07" d="M 39.964844 9.699219 L 40.773438 9.699219 L 40.773438 10.507812 L 39.964844 10.507812 Z M 39.964844 9.699219 " fill-opacity="0.498" fill-rule="nonzero"/><path fill="#ff7f07" d="M 41.582031 9.699219 L 42.386719 9.699219 L 42.386719 10.507812 L 41.582031 10.507812 Z M 41.582031 9.699219 " fill-opacity="0.498" fill-rule="nonzero"/><path fill="#ff7f07" d="M 43.195312 9.699219 L 44.003906 9.699219 L 44.003906 10.507812 L 43.195312 10.507812 Z M 43.195312 9.699219 " fill-opacity="0.498" fill-rule="nonzero"/><path fill="#ff7f07" d="M 44.8125 9.699219 L 45.621094 9.699219 L 45.621094 10.507812 L 44.8125 10.507812 Z M 44.8125 9.699219 " fill-opacity="0.498" fill-rule="nonzero"/><path fill="#ff7f07" d="M 18.953125 8.082031 L 19.761719 8.082031 L 19.761719 8.890625 L 18.953125 8.890625 Z M 18.953125 8.082031 " fill-opacity="0.2471" fill-rule="nonzero"/><path fill="#ff7f07" d="M 20.566406 8.082031 L 21.375 8.082031 L 21.375 8.890625 L 20.566406 8.890625 Z M 20.566406 8.082031 " fill-opacity="0.2471" fill-rule="nonzero"/><path fill="#ff7f07" d="M 22.183594 8.082031 L 22.992188 8.082031 L 22.992188 8.890625 L 22.183594 8.890625 Z M 22.183594 8.082031 " fill-opacity="0.2471" fill-rule="nonzero"/><path fill="#ff7f07" d="M 23.800781 8.082031 L 24.609375 8.082031 L 24.609375 8.890625 L 23.800781 8.890625 Z M 23.800781 8.082031 " fill-opacity="0.2471" fill-rule="nonzero"/><path fill="#ff7f07" d="M 25.417969 8.082031 L 26.226562 8.082031 L 26.226562 8.890625 L 25.417969 8.890625 Z M 25.417969 8.082031 " fill-opacity="0.2471" fill-rule="nonzero"/><path fill="#ff7f07" d="M 27.035156 8.082031 L 27.839844 8.082031 L 27.839844 8.890625 L 27.035156 8.890625 Z M 27.035156 8.082031 " fill-opacity="0.2471" fill-rule="nonzero"/><path fill="#ff7f07" d="M 28.648438 8.082031 L 29.457031 8.082031 L 29.457031 8.890625 L 28.648438 8.890625 Z M 28.648438 8.082031 " fill-opacity="0.2471" fill-rule="nonzero"/><path fill="#ff7f07" d="M 30.265625 8.082031 L 31.074219 8.082031 L 31.074219 8.890625 L 30.265625 8.890625 Z M 30.265625 8.082031 " fill-opacity="0.2471" fill-rule="nonzero"/><path fill="#ff7f07" d="M 31.882812 8.082031 L 32.691406 8.082031 L 32.691406 8.890625 L 31.882812 8.890625 Z M 31.882812 8.082031 " fill-opacity="0.2471" fill-rule="nonzero"/><path fill="#ff7f07" d="M 33.5 8.082031 L 34.308594 8.082031 L 34.308594 8.890625 L 33.5 8.890625 Z M 33.5 8.082031 " fill-opacity="0.2471" fill-rule="nonzero"/><path fill="#ff7f07" d="M 35.113281 8.082031 L 35.921875 8.082031 L 35.921875 8.890625 L 35.113281 8.890625 Z M 35.113281 8.082031 " fill-opacity="0.2471" fill-rule="nonzero"/><path fill="#ff7f07" d="M 36.730469 8.082031 L 37.539062 8.082031 L 37.539062 8.890625 L 36.730469 8.890625 Z M 36.730469 8.082031 " fill-opacity="0.2471" fill-rule="nonzero"/><path fill="#ff7f07" d="M 38.347656 8.082031 L 39.15625 8.082031 L 39.15625 8.890625 L 38.347656 8.890625 Z M 38.347656 8.082031 " fill-opacity="0.2471" fill-rule="nonzero"/><path fill="#ff7f07" d="M 39.964844 8.082031 L 40.773438 8.082031 L 40.773438 8.890625 L 39.964844 8.890625 Z M 39.964844 8.082031 " fill-opacity="0.2471" fill-rule="nonzero"/><path fill="#ff7f07" d="M 41.582031 8.082031 L 42.386719 8.082031 L 42.386719 8.890625 L 41.582031 8.890625 Z M 41.582031 8.082031 " fill-opacity="0.2471" fill-rule="nonzero"/><path fill="#ff7f07" d="M 43.195312 8.082031 L 44.003906 8.082031 L 44.003906 8.890625 L 43.195312 8.890625 Z M 43.195312 8.082031 " fill-opacity="0.2471" fill-rule="nonzero"/><path fill="#ff7f07" d="M 44.8125 8.082031 L 45.621094 8.082031 L 45.621094 8.890625 L 44.8125 8.890625 Z M 44.8125 8.082031 " fill-opacity="0.2471" fill-rule="nonzero"/><path fill="#ff7f07" d="M 19.761719 12.121094 L 20.566406 12.121094 L 20.566406 12.929688 L 19.761719 12.929688 Z M 19.761719 12.121094 " fill-opacity="1" fill-rule="nonzero"/><path fill="#ff7f07" d="M 21.375 12.121094 L 22.183594 12.121094 L 22.183594 12.929688 L 21.375 12.929688 Z M 21.375 12.121094 " fill-opacity="1" fill-rule="nonzero"/><path fill="#ff7f07" d="M 22.992188 12.121094 L 23.800781 12.121094 L 23.800781 12.929688 L 22.992188 12.929688 Z M 22.992188 12.121094 " fill-opacity="1" fill-rule="nonzero"/><path fill="#ff7f07" d="M 24.609375 12.121094 L 25.417969 12.121094 L 25.417969 12.929688 L 24.609375 12.929688 Z M 24.609375 12.121094 " fill-opacity="1" fill-rule="nonzero"/><path fill="#ff7f07" d="M 26.226562 12.121094 L 27.035156 12.121094 L 27.035156 12.929688 L 26.226562 12.929688 Z M 26.226562 12.121094 " fill-opacity="1" fill-rule="nonzero"/><path fill="#ff7f07" d="M 27.839844 12.121094 L 28.648438 12.121094 L 28.648438 12.929688 L 27.839844 12.929688 Z M 27.839844 12.121094 " fill-opacity="1" fill-rule="nonzero"/><path fill="#ff7f07" d="M 29.457031 12.121094 L 30.265625 12.121094 L 30.265625 12.929688 L 29.457031 12.929688 Z M 29.457031 12.121094 " fill-opacity="1" fill-rule="nonzero"/><path fill="#ff7f07" d="M 31.074219 12.121094 L 31.882812 12.121094 L 31.882812 12.929688 L 31.074219 12.929688 Z M 31.074219 12.121094 " fill-opacity="1" fill-rule="nonzero"/><path fill="#ff7f07" d="M 32.691406 12.121094 L 33.5 12.121094 L 33.5 12.929688 L 32.691406 12.929688 Z M 32.691406 12.121094 " fill-opacity="1" fill-rule="nonzero"/><path fill="#ff7f07" d="M 34.308594 12.121094 L 35.113281 12.121094 L 35.113281 12.929688 L 34.308594 12.929688 Z M 34.308594 12.121094 " fill-opacity="1" fill-rule="nonzero"/><path fill="#ff7f07" d="M 35.921875 12.121094 L 36.730469 12.121094 L 36.730469 12.929688 L 35.921875 12.929688 Z M 35.921875 12.121094 " fill-opacity="1" fill-rule="nonzero"/><path fill="#ff7f07" d="M 37.539062 12.121094 L 38.347656 12.121094 L 38.347656 12.929688 L 37.539062 12.929688 Z M 37.539062 12.121094 " fill-opacity="1" fill-rule="nonzero"/><path fill="#ff7f07" d="M 39.15625 12.121094 L 39.964844 12.121094 L 39.964844 12.929688 L 39.15625 12.929688 Z M 39.15625 12.121094 " fill-opacity="1" fill-rule="nonzero"/><path fill="#ff7f07" d="M 40.773438 12.121094 L 41.582031 12.121094 L 41.582031 12.929688 L 40.773438 12.929688 Z M 40.773438 12.121094 " fill-opacity="1" fill-rule="nonzero"/><path fill="#ff7f07" d="M 42.386719 12.121094 L 43.195312 12.121094 L 43.195312 12.929688 L 42.386719 12.929688 Z M 42.386719 12.121094 " fill-opacity="1" fill-rule="nonzero"/><path fill="#ff7f07" d="M 44.003906 12.121094 L 44.8125 12.121094 L 44.8125 12.929688 L 44.003906 12.929688 Z M 44.003906 12.121094 " fill-opacity="1" fill-rule="nonzero"/><g clip-path="url(#a660a4e53d)"><path fill="#ff7f07" d="M 45.621094 12.121094 L 46.429688 12.121094 L 46.429688 12.929688 L 45.621094 12.929688 Z M 45.621094 12.121094 " fill-opacity="1" fill-rule="nonzero"/></g><path fill="#ff7f07" d="M 18.953125 12.929688 L 19.761719 12.929688 L 19.761719 13.738281 L 18.953125 13.738281 Z M 18.953125 12.929688 " fill-opacity="1" fill-rule="nonzero"/><path fill="#ff7f07" d="M 20.566406 12.929688 L 21.375 12.929688 L 21.375 13.738281 L 20.566406 13.738281 Z M 20.566406 12.929688 " fill-opacity="1" fill-rule="nonzero"/><path fill="#ff7f07" d="M 22.183594 12.929688 L 22.992188 12.929688 L 22.992188 13.738281 L 22.183594 13.738281 Z M 22.183594 12.929688 " fill-opacity="1" fill-rule="nonzero"/><path fill="#ff7f07" d="M 23.800781 12.929688 L 24.609375 12.929688 L 24.609375 13.738281 L 23.800781 13.738281 Z M 23.800781 12.929688 " fill-opacity="1" fill-rule="nonzero"/><path fill="#ff7f07" d="M 25.417969 12.929688 L 26.226562 12.929688 L 26.226562 13.738281 L 25.417969 13.738281 Z M 25.417969 12.929688 " fill-opacity="1" fill-rule="nonzero"/><path fill="#ff7f07" d="M 27.035156 12.929688 L 27.839844 12.929688 L 27.839844 13.738281 L 27.035156 13.738281 Z M 27.035156 12.929688 " fill-opacity="1" fill-rule="nonzero"/><path fill="#ff7f07" d="M 28.648438 12.929688 L 29.457031 12.929688 L 29.457031 13.738281 L 28.648438 13.738281 Z M 28.648438 12.929688 " fill-opacity="1" fill-rule="nonzero"/><path fill="#ff7f07" d="M 30.265625 12.929688 L 31.074219 12.929688 L 31.074219 13.738281 L 30.265625 13.738281 Z M 30.265625 12.929688 " fill-opacity="1" fill-rule="nonzero"/><path fill="#ff7f07" d="M 31.882812 12.929688 L 32.691406 12.929688 L 32.691406 13.738281 L 31.882812 13.738281 Z M 31.882812 12.929688 " fill-opacity="1" fill-rule="nonzero"/><path fill="#ff7f07" d="M 33.5 12.929688 L 34.308594 12.929688 L 34.308594 13.738281 L 33.5 13.738281 Z M 33.5 12.929688 " fill-opacity="1" fill-rule="nonzero"/><path fill="#ff7f07" d="M 35.113281 12.929688 L 35.921875 12.929688 L 35.921875 13.738281 L 35.113281 13.738281 Z M 35.113281 12.929688 " fill-opacity="1" fill-rule="nonzero"/><path fill="#ff7f07" d="M 36.730469 12.929688 L 37.539062 12.929688 L 37.539062 13.738281 L 36.730469 13.738281 Z M 36.730469 12.929688 " fill-opacity="1" fill-rule="nonzero"/><path fill="#ff7f07" d="M 38.347656 12.929688 L 39.15625 12.929688 L 39.15625 13.738281 L 38.347656 13.738281 Z M 38.347656 12.929688 " fill-opacity="1" fill-rule="nonzero"/><path fill="#ff7f07" d="M 39.964844 12.929688 L 40.773438 12.929688 L 40.773438 13.738281 L 39.964844 13.738281 Z M 39.964844 12.929688 " fill-opacity="1" fill-rule="nonzero"/><path fill="#ff7f07" d="M 41.582031 12.929688 L 42.386719 12.929688 L 42.386719 13.738281 L 41.582031 13.738281 Z M 41.582031 12.929688 " fill-opacity="1" fill-rule="nonzero"/><path fill="#ff7f07" d="M 43.195312 12.929688 L 44.003906 12.929688 L 44.003906 13.738281 L 43.195312 13.738281 Z M 43.195312 12.929688 " fill-opacity="1" fill-rule="nonzero"/><path fill="#ff7f07" d="M 44.8125 12.929688 L 45.621094 12.929688 L 45.621094 13.738281 L 44.8125 13.738281 Z M 44.8125 12.929688 " fill-opacity="1" fill-rule="nonzero"/><g clip-path="url(#8f9c56ea6b)"><path fill="#ff7f07" d="M 17.335938 12.121094 L 46.429688 12.121094 L 46.429688 13.738281 L 17.335938 13.738281 Z M 17.335938 12.121094 " fill-opacity="0.498" fill-rule="nonzero"/></g><g clip-path="url(#602730923b)"><path fill="#ff7f07" d="M 17.335938 10.507812 L 46.429688 10.507812 L 46.429688 12.121094 L 17.335938 12.121094 Z M 17.335938 10.507812 " fill-opacity="0.2" fill-rule="nonzero"/></g><path fill="#ff7f07" d="M 18.144531 8.890625 L 45.621094 8.890625 L 45.621094 10.507812 L 18.144531 10.507812 Z M 18.144531 8.890625 " fill-opacity="0.098" fill-rule="nonzero"/><g clip-path="url(#162575786f)"><path fill="#ff0070" d="M 17.335938 17.78125 L 18.144531 17.78125 L 18.144531 18.585938 L 17.335938 18.585938 Z M 17.335938 17.78125 " fill-opacity="1" fill-rule="nonzero"/></g><path fill="#ff0070" d="M 18.144531 16.972656 L 18.953125 16.972656 L 18.953125 17.78125 L 18.144531 17.78125 Z M 18.144531 16.972656 " fill-opacity="1" fill-rule="nonzero"/><path fill="#ff0070" d="M 19.761719 16.972656 L 20.566406 16.972656 L 20.566406 17.78125 L 19.761719 17.78125 Z M 19.761719 16.972656 " fill-opacity="1" fill-rule="nonzero"/><path fill="#ff0070" d="M 21.375 16.972656 L 22.183594 16.972656 L 22.183594 17.78125 L 21.375 17.78125 Z M 21.375 16.972656 " fill-opacity="1" fill-rule="nonzero"/><path fill="#ff0070" d="M 22.992188 16.972656 L 23.800781 16.972656 L 23.800781 17.78125 L 22.992188 17.78125 Z M 22.992188 16.972656 " fill-opacity="1" fill-rule="nonzero"/><path fill="#ff0070" d="M 24.609375 16.972656 L 25.417969 16.972656 L 25.417969 17.78125 L 24.609375 17.78125 Z M 24.609375 16.972656 " fill-opacity="1" fill-rule="nonzero"/><path fill="#ff0070" d="M 26.226562 16.972656 L 27.035156 16.972656 L 27.035156 17.78125 L 26.226562 17.78125 Z M 26.226562 16.972656 " fill-opacity="1" fill-rule="nonzero"/><path fill="#ff0070" d="M 27.839844 16.972656 L 28.648438 16.972656 L 28.648438 17.78125 L 27.839844 17.78125 Z M 27.839844 16.972656 " fill-opacity="1" fill-rule="nonzero"/><path fill="#ff0070" d="M 29.457031 16.972656 L 30.265625 16.972656 L 30.265625 17.78125 L 29.457031 17.78125 Z M 29.457031 16.972656 " fill-opacity="1" fill-rule="nonzero"/><path fill="#ff0070" d="M 31.074219 16.972656 L 31.882812 16.972656 L 31.882812 17.78125 L 31.074219 17.78125 Z M 31.074219 16.972656 " fill-opacity="1" fill-rule="nonzero"/><path fill="#ff0070" d="M 32.691406 16.972656 L 33.5 16.972656 L 33.5 17.78125 L 32.691406 17.78125 Z M 32.691406 16.972656 " fill-opacity="1" fill-rule="nonzero"/><path fill="#ff0070" d="M 34.308594 16.972656 L 35.113281 16.972656 L 35.113281 17.78125 L 34.308594 17.78125 Z M 34.308594 16.972656 " fill-opacity="1" fill-rule="nonzero"/><path fill="#ff0070" d="M 35.921875 16.972656 L 36.730469 16.972656 L 36.730469 17.78125 L 35.921875 17.78125 Z M 35.921875 16.972656 " fill-opacity="1" fill-rule="nonzero"/><path fill="#ff0070" d="M 37.539062 16.972656 L 38.347656 16.972656 L 38.347656 17.78125 L 37.539062 17.78125 Z M 37.539062 16.972656 " fill-opacity="1" fill-rule="nonzero"/><path fill="#ff0070" d="M 39.15625 16.972656 L 39.964844 16.972656 L 39.964844 17.78125 L 39.15625 17.78125 Z M 39.15625 16.972656 " fill-opacity="1" fill-rule="nonzero"/><path fill="#ff0070" d="M 40.773438 16.972656 L 41.582031 16.972656 L 41.582031 17.78125 L 40.773438 17.78125 Z M 40.773438 16.972656 " fill-opacity="1" fill-rule="nonzero"/><path fill="#ff0070" d="M 42.386719 16.972656 L 43.195312 16.972656 L 43.195312 17.78125 L 42.386719 17.78125 Z M 42.386719 16.972656 " fill-opacity="1" fill-rule="nonzero"/><path fill="#ff0070" d="M 44.003906 16.972656 L 44.8125 16.972656 L 44.8125 17.78125 L 44.003906 17.78125 Z M 44.003906 16.972656 " fill-opacity="1" fill-rule="nonzero"/><g clip-path="url(#74570b0c36)"><path fill="#ff0070" d="M 45.621094 16.972656 L 46.429688 16.972656 L 46.429688 17.78125 L 45.621094 17.78125 Z M 45.621094 16.972656 " fill-opacity="1" fill-rule="nonzero"/></g><path fill="#ff0070" d="M 18.953125 17.78125 L 19.761719 17.78125 L 19.761719 18.585938 L 18.953125 18.585938 Z M 18.953125 17.78125 " fill-opacity="1" fill-rule="nonzero"/><path fill="#ff0070" d="M 20.566406 17.78125 L 21.375 17.78125 L 21.375 18.585938 L 20.566406 18.585938 Z M 20.566406 17.78125 " fill-opacity="1" fill-rule="nonzero"/><path fill="#ff0070" d="M 22.183594 17.78125 L 22.992188 17.78125 L 22.992188 18.585938 L 22.183594 18.585938 Z M 22.183594 17.78125 " fill-opacity="1" fill-rule="nonzero"/><path fill="#ff0070" d="M 23.800781 17.78125 L 24.609375 17.78125 L 24.609375 18.585938 L 23.800781 18.585938 Z M 23.800781 17.78125 " fill-opacity="1" fill-rule="nonzero"/><path fill="#ff0070" d="M 25.417969 17.78125 L 26.226562 17.78125 L 26.226562 18.585938 L 25.417969 18.585938 Z M 25.417969 17.78125 " fill-opacity="1" fill-rule="nonzero"/><path fill="#ff0070" d="M 27.035156 17.78125 L 27.839844 17.78125 L 27.839844 18.585938 L 27.035156 18.585938 Z M 27.035156 17.78125 " fill-opacity="1" fill-rule="nonzero"/><path fill="#ff0070" d="M 28.648438 17.78125 L 29.457031 17.78125 L 29.457031 18.585938 L 28.648438 18.585938 Z M 28.648438 17.78125 " fill-opacity="1" fill-rule="nonzero"/><path fill="#ff0070" d="M 30.265625 17.78125 L 31.074219 17.78125 L 31.074219 18.585938 L 30.265625 18.585938 Z M 30.265625 17.78125 " fill-opacity="1" fill-rule="nonzero"/><path fill="#ff0070" d="M 31.882812 17.78125 L 32.691406 17.78125 L 32.691406 18.585938 L 31.882812 18.585938 Z M 31.882812 17.78125 " fill-opacity="1" fill-rule="nonzero"/><path fill="#ff0070" d="M 33.5 17.78125 L 34.308594 17.78125 L 34.308594 18.585938 L 33.5 18.585938 Z M 33.5 17.78125 " fill-opacity="1" fill-rule="nonzero"/><path fill="#ff0070" d="M 35.113281 17.78125 L 35.921875 17.78125 L 35.921875 18.585938 L 35.113281 18.585938 Z M 35.113281 17.78125 " fill-opacity="1" fill-rule="nonzero"/><path fill="#ff0070" d="M 36.730469 17.78125 L 37.539062 17.78125 L 37.539062 18.585938 L 36.730469 18.585938 Z M 36.730469 17.78125 " fill-opacity="1" fill-rule="nonzero"/><path fill="#ff0070" d="M 38.347656 17.78125 L 39.15625 17.78125 L 39.15625 18.585938 L 38.347656 18.585938 Z M 38.347656 17.78125 " fill-opacity="1" fill-rule="nonzero"/><path fill="#ff0070" d="M 39.964844 17.78125 L 40.773438 17.78125 L 40.773438 18.585938 L 39.964844 18.585938 Z M 39.964844 17.78125 " fill-opacity="1" fill-rule="nonzero"/><path fill="#ff0070" d="M 41.582031 17.78125 L 42.386719 17.78125 L 42.386719 18.585938 L 41.582031 18.585938 Z M 41.582031 17.78125 " fill-opacity="1" fill-rule="nonzero"/><path fill="#ff0070" d="M 43.195312 17.78125 L 44.003906 17.78125 L 44.003906 18.585938 L 43.195312 18.585938 Z M 43.195312 17.78125 " fill-opacity="1" fill-rule="nonzero"/><path fill="#ff0070" d="M 44.8125 17.78125 L 45.621094 17.78125 L 45.621094 18.585938 L 44.8125 18.585938 Z M 44.8125 17.78125 " fill-opacity="1" fill-rule="nonzero"/><path fill="#f20040" d="M 21.375 23.4375 L 22.183594 23.4375 L 22.183594 24.246094 L 21.375 24.246094 Z M 21.375 23.4375 " fill-opacity="1" fill-rule="nonzero"/><path fill="#f20040" d="M 22.183594 22.628906 L 22.992188 22.628906 L 22.992188 23.4375 L 22.183594 23.4375 Z M 22.183594 22.628906 " fill-opacity="1" fill-rule="nonzero"/><path fill="#f20040" d="M 23.800781 22.628906 L 24.609375 22.628906 L 24.609375 23.4375 L 23.800781 23.4375 Z M 23.800781 22.628906 " fill-opacity="1" fill-rule="nonzero"/><path fill="#f20040" d="M 25.417969 22.628906 L 26.226562 22.628906 L 26.226562 23.4375 L 25.417969 23.4375 Z M 25.417969 22.628906 " fill-opacity="1" fill-rule="nonzero"/><path fill="#f20040" d="M 27.035156 22.628906 L 27.839844 22.628906 L 27.839844 23.4375 L 27.035156 23.4375 Z M 27.035156 22.628906 " fill-opacity="1" fill-rule="nonzero"/><path fill="#f20040" d="M 28.648438 22.628906 L 29.457031 22.628906 L 29.457031 23.4375 L 28.648438 23.4375 Z M 28.648438 22.628906 " fill-opacity="1" fill-rule="nonzero"/><path fill="#f20040" d="M 30.265625 22.628906 L 31.074219 22.628906 L 31.074219 23.4375 L 30.265625 23.4375 Z M 30.265625 22.628906 " fill-opacity="1" fill-rule="nonzero"/><path fill="#f20040" d="M 31.882812 22.628906 L 32.691406 22.628906 L 32.691406 23.4375 L 31.882812 23.4375 Z M 31.882812 22.628906 " fill-opacity="1" fill-rule="nonzero"/><path fill="#f20040" d="M 33.5 22.628906 L 34.308594 22.628906 L 34.308594 23.4375 L 33.5 23.4375 Z M 33.5 22.628906 " fill-opacity="1" fill-rule="nonzero"/><path fill="#f20040" d="M 35.113281 22.628906 L 35.921875 22.628906 L 35.921875 23.4375 L 35.113281 23.4375 Z M 35.113281 22.628906 " fill-opacity="1" fill-rule="nonzero"/><path fill="#f20040" d="M 36.730469 22.628906 L 37.539062 22.628906 L 37.539062 23.4375 L 36.730469 23.4375 Z M 36.730469 22.628906 " fill-opacity="1" fill-rule="nonzero"/><path fill="#f20040" d="M 38.347656 22.628906 L 39.15625 22.628906 L 39.15625 23.4375 L 38.347656 23.4375 Z M 38.347656 22.628906 " fill-opacity="1" fill-rule="nonzero"/><path fill="#f20040" d="M 39.964844 22.628906 L 40.773438 22.628906 L 40.773438 23.4375 L 39.964844 23.4375 Z M 39.964844 22.628906 " fill-opacity="1" fill-rule="nonzero"/><path fill="#f20040" d="M 41.582031 22.628906 L 42.386719 22.628906 L 42.386719 23.4375 L 41.582031 23.4375 Z M 41.582031 22.628906 " fill-opacity="1" fill-rule="nonzero"/><path fill="#f20040" d="M 43.195312 22.628906 L 44.003906 22.628906 L 44.003906 23.4375 L 43.195312 23.4375 Z M 43.195312 22.628906 " fill-opacity="1" fill-rule="nonzero"/><path fill="#f20040" d="M 20.566406 22.628906 L 21.375 22.628906 L 21.375 23.4375 L 20.566406 23.4375 Z M 20.566406 22.628906 " fill-opacity="1" fill-rule="nonzero"/><path fill="#f20040" d="M 22.992188 23.4375 L 23.800781 23.4375 L 23.800781 24.246094 L 22.992188 24.246094 Z M 22.992188 23.4375 " fill-opacity="1" fill-rule="nonzero"/><path fill="#f20040" d="M 24.609375 23.4375 L 25.417969 23.4375 L 25.417969 24.246094 L 24.609375 24.246094 Z M 24.609375 23.4375 " fill-opacity="1" fill-rule="nonzero"/><path fill="#f20040" d="M 26.226562 23.4375 L 27.035156 23.4375 L 27.035156 24.246094 L 26.226562 24.246094 Z M 26.226562 23.4375 " fill-opacity="1" fill-rule="nonzero"/><path fill="#f20040" d="M 27.839844 23.4375 L 28.648438 23.4375 L 28.648438 24.246094 L 27.839844 24.246094 Z M 27.839844 23.4375 " fill-opacity="1" fill-rule="nonzero"/><path fill="#f20040" d="M 29.457031 23.4375 L 30.265625 23.4375 L 30.265625 24.246094 L 29.457031 24.246094 Z M 29.457031 23.4375 " fill-opacity="1" fill-rule="nonzero"/><path fill="#f20040" d="M 31.074219 23.4375 L 31.882812 23.4375 L 31.882812 24.246094 L 31.074219 24.246094 Z M 31.074219 23.4375 " fill-opacity="1" fill-rule="nonzero"/><path fill="#f20040" d="M 32.691406 23.4375 L 33.5 23.4375 L 33.5 24.246094 L 32.691406 24.246094 Z M 32.691406 23.4375 " fill-opacity="1" fill-rule="nonzero"/><path fill="#f20040" d="M 34.308594 23.4375 L 35.113281 23.4375 L 35.113281 24.246094 L 34.308594 24.246094 Z M 34.308594 23.4375 " fill-opacity="1" fill-rule="nonzero"/><path fill="#f20040" d="M 35.921875 23.4375 L 36.730469 23.4375 L 36.730469 24.246094 L 35.921875 24.246094 Z M 35.921875 23.4375 " fill-opacity="1" fill-rule="nonzero"/><path fill="#f20040" d="M 37.539062 23.4375 L 38.347656 23.4375 L 38.347656 24.246094 L 37.539062 24.246094 Z M 37.539062 23.4375 " fill-opacity="1" fill-rule="nonzero"/><path fill="#f20040" d="M 39.15625 23.4375 L 39.964844 23.4375 L 39.964844 24.246094 L 39.15625 24.246094 Z M 39.15625 23.4375 " fill-opacity="1" fill-rule="nonzero"/><path fill="#f20040" d="M 40.773438 23.4375 L 41.582031 23.4375 L 41.582031 24.246094 L 40.773438 24.246094 Z M 40.773438 23.4375 " fill-opacity="1" fill-rule="nonzero"/><path fill="#f20040" d="M 42.386719 23.4375 L 43.195312 23.4375 L 43.195312 24.246094 L 42.386719 24.246094 Z M 42.386719 23.4375 " fill-opacity="1" fill-rule="nonzero"/><path fill="#ff7f07" d="M 18.144531 19.394531 L 18.953125 19.394531 L 18.953125 20.203125 L 18.144531 20.203125 Z M 18.144531 19.394531 " fill-opacity="1" fill-rule="nonzero"/><path fill="#ff7f07" d="M 19.761719 19.394531 L 20.566406 19.394531 L 20.566406 20.203125 L 19.761719 20.203125 Z M 19.761719 19.394531 " fill-opacity="1" fill-rule="nonzero"/><path fill="#ff7f07" d="M 21.375 19.394531 L 22.183594 19.394531 L 22.183594 20.203125 L 21.375 20.203125 Z M 21.375 19.394531 " fill-opacity="1" fill-rule="nonzero"/><path fill="#ff7f07" d="M 22.992188 19.394531 L 23.800781 19.394531 L 23.800781 20.203125 L 22.992188 20.203125 Z M 22.992188 19.394531 " fill-opacity="1" fill-rule="nonzero"/><path fill="#ff7f07" d="M 24.609375 19.394531 L 25.417969 19.394531 L 25.417969 20.203125 L 24.609375 20.203125 Z M 24.609375 19.394531 " fill-opacity="1" fill-rule="nonzero"/><path fill="#ff7f07" d="M 26.226562 19.394531 L 27.035156 19.394531 L 27.035156 20.203125 L 26.226562 20.203125 Z M 26.226562 19.394531 " fill-opacity="1" fill-rule="nonzero"/><path fill="#ff7f07" d="M 27.839844 19.394531 L 28.648438 19.394531 L 28.648438 20.203125 L 27.839844 20.203125 Z M 27.839844 19.394531 " fill-opacity="1" fill-rule="nonzero"/><path fill="#ff7f07" d="M 29.457031 19.394531 L 30.265625 19.394531 L 30.265625 20.203125 L 29.457031 20.203125 Z M 29.457031 19.394531 " fill-opacity="1" fill-rule="nonzero"/><path fill="#ff7f07" d="M 31.074219 19.394531 L 31.882812 19.394531 L 31.882812 20.203125 L 31.074219 20.203125 Z M 31.074219 19.394531 " fill-opacity="1" fill-rule="nonzero"/><path fill="#ff7f07" d="M 32.691406 19.394531 L 33.5 19.394531 L 33.5 20.203125 L 32.691406 20.203125 Z M 32.691406 19.394531 " fill-opacity="1" fill-rule="nonzero"/><path fill="#ff7f07" d="M 34.308594 19.394531 L 35.113281 19.394531 L 35.113281 20.203125 L 34.308594 20.203125 Z M 34.308594 19.394531 " fill-opacity="1" fill-rule="nonzero"/><path fill="#ff7f07" d="M 35.921875 19.394531 L 36.730469 19.394531 L 36.730469 20.203125 L 35.921875 20.203125 Z M 35.921875 19.394531 " fill-opacity="1" fill-rule="nonzero"/><path fill="#ff7f07" d="M 37.539062 19.394531 L 38.347656 19.394531 L 38.347656 20.203125 L 37.539062 20.203125 Z M 37.539062 19.394531 " fill-opacity="1" fill-rule="nonzero"/><path fill="#ff7f07" d="M 39.15625 19.394531 L 39.964844 19.394531 L 39.964844 20.203125 L 39.15625 20.203125 Z M 39.15625 19.394531 " fill-opacity="1" fill-rule="nonzero"/><path fill="#ff7f07" d="M 40.773438 19.394531 L 41.582031 19.394531 L 41.582031 20.203125 L 40.773438 20.203125 Z M 40.773438 19.394531 " fill-opacity="1" fill-rule="nonzero"/><path fill="#ff7f07" d="M 42.386719 19.394531 L 43.195312 19.394531 L 43.195312 20.203125 L 42.386719 20.203125 Z M 42.386719 19.394531 " fill-opacity="1" fill-rule="nonzero"/><path fill="#ff7f07" d="M 44.003906 19.394531 L 44.8125 19.394531 L 44.8125 20.203125 L 44.003906 20.203125 Z M 44.003906 19.394531 " fill-opacity="1" fill-rule="nonzero"/><path fill="#ff0070" d="M 23.800781 25.859375 L 24.609375 25.859375 L 24.609375 26.667969 L 23.800781 26.667969 Z M 23.800781 25.859375 " fill-opacity="1" fill-rule="nonzero"/><path fill="#ff0070" d="M 25.417969 25.859375 L 26.226562 25.859375 L 26.226562 26.667969 L 25.417969 26.667969 Z M 25.417969 25.859375 " fill-opacity="1" fill-rule="nonzero"/><path fill="#ff0070" d="M 27.035156 25.859375 L 27.839844 25.859375 L 27.839844 26.667969 L 27.035156 26.667969 Z M 27.035156 25.859375 " fill-opacity="1" fill-rule="nonzero"/><path fill="#ff0070" d="M 28.648438 25.859375 L 29.457031 25.859375 L 29.457031 26.667969 L 28.648438 26.667969 Z M 28.648438 25.859375 " fill-opacity="1" fill-rule="nonzero"/><path fill="#ff0070" d="M 30.265625 25.859375 L 31.074219 25.859375 L 31.074219 26.667969 L 30.265625 26.667969 Z M 30.265625 25.859375 " fill-opacity="1" fill-rule="nonzero"/><path fill="#ff0070" d="M 31.882812 25.859375 L 32.691406 25.859375 L 32.691406 26.667969 L 31.882812 26.667969 Z M 31.882812 25.859375 " fill-opacity="1" fill-rule="nonzero"/><path fill="#ff0070" d="M 33.5 25.859375 L 34.308594 25.859375 L 34.308594 26.667969 L 33.5 26.667969 Z M 33.5 25.859375 " fill-opacity="1" fill-rule="nonzero"/><path fill="#ff0070" d="M 35.113281 25.859375 L 35.921875 25.859375 L 35.921875 26.667969 L 35.113281 26.667969 Z M 35.113281 25.859375 " fill-opacity="1" fill-rule="nonzero"/><path fill="#ff0070" d="M 36.730469 25.859375 L 37.539062 25.859375 L 37.539062 26.667969 L 36.730469 26.667969 Z M 36.730469 25.859375 " fill-opacity="1" fill-rule="nonzero"/><path fill="#ff0070" d="M 38.347656 25.859375 L 39.15625 25.859375 L 39.15625 26.667969 L 38.347656 26.667969 Z M 38.347656 25.859375 " fill-opacity="1" fill-rule="nonzero"/><path fill="#ff0070" d="M 39.964844 25.859375 L 40.773438 25.859375 L 40.773438 26.667969 L 39.964844 26.667969 Z M 39.964844 25.859375 " fill-opacity="1" fill-rule="nonzero"/><path fill="#ffd100" d="M 18.144531 14.546875 L 18.953125 14.546875 L 18.953125 15.355469 L 18.144531 15.355469 Z M 18.144531 14.546875 " fill-opacity="1" fill-rule="nonzero"/><path fill="#ffd100" d="M 19.761719 14.546875 L 20.566406 14.546875 L 20.566406 15.355469 L 19.761719 15.355469 Z M 19.761719 14.546875 " fill-opacity="1" fill-rule="nonzero"/><path fill="#ffd100" d="M 21.375 14.546875 L 22.183594 14.546875 L 22.183594 15.355469 L 21.375 15.355469 Z M 21.375 14.546875 " fill-opacity="1" fill-rule="nonzero"/><path fill="#ffd100" d="M 22.992188 14.546875 L 23.800781 14.546875 L 23.800781 15.355469 L 22.992188 15.355469 Z M 22.992188 14.546875 " fill-opacity="1" fill-rule="nonzero"/><path fill="#ffd100" d="M 24.609375 14.546875 L 25.417969 14.546875 L 25.417969 15.355469 L 24.609375 15.355469 Z M 24.609375 14.546875 " fill-opacity="1" fill-rule="nonzero"/><path fill="#ffd100" d="M 26.226562 14.546875 L 27.035156 14.546875 L 27.035156 15.355469 L 26.226562 15.355469 Z M 26.226562 14.546875 " fill-opacity="1" fill-rule="nonzero"/><path fill="#ffd100" d="M 27.839844 14.546875 L 28.648438 14.546875 L 28.648438 15.355469 L 27.839844 15.355469 Z M 27.839844 14.546875 " fill-opacity="1" fill-rule="nonzero"/><path fill="#ffd100" d="M 29.457031 14.546875 L 30.265625 14.546875 L 30.265625 15.355469 L 29.457031 15.355469 Z M 29.457031 14.546875 " fill-opacity="1" fill-rule="nonzero"/><path fill="#ffd100" d="M 31.074219 14.546875 L 31.882812 14.546875 L 31.882812 15.355469 L 31.074219 15.355469 Z M 31.074219 14.546875 " fill-opacity="1" fill-rule="nonzero"/><path fill="#ffd100" d="M 32.691406 14.546875 L 33.5 14.546875 L 33.5 15.355469 L 32.691406 15.355469 Z M 32.691406 14.546875 " fill-opacity="1" fill-rule="nonzero"/><path fill="#ffd100" d="M 34.308594 14.546875 L 35.113281 14.546875 L 35.113281 15.355469 L 34.308594 15.355469 Z M 34.308594 14.546875 " fill-opacity="1" fill-rule="nonzero"/><path fill="#ffd100" d="M 35.921875 14.546875 L 36.730469 14.546875 L 36.730469 15.355469 L 35.921875 15.355469 Z M 35.921875 14.546875 " fill-opacity="1" fill-rule="nonzero"/><path fill="#ffd100" d="M 37.539062 14.546875 L 38.347656 14.546875 L 38.347656 15.355469 L 37.539062 15.355469 Z M 37.539062 14.546875 " fill-opacity="1" fill-rule="nonzero"/><path fill="#ffd100" d="M 39.15625 14.546875 L 39.964844 14.546875 L 39.964844 15.355469 L 39.15625 15.355469 Z M 39.15625 14.546875 " fill-opacity="1" fill-rule="nonzero"/><path fill="#ffd100" d="M 40.773438 14.546875 L 41.582031 14.546875 L 41.582031 15.355469 L 40.773438 15.355469 Z M 40.773438 14.546875 " fill-opacity="1" fill-rule="nonzero"/><path fill="#ffd100" d="M 42.386719 14.546875 L 43.195312 14.546875 L 43.195312 15.355469 L 42.386719 15.355469 Z M 42.386719 14.546875 " fill-opacity="1" fill-rule="nonzero"/><path fill="#ffd100" d="M 44.003906 14.546875 L 44.8125 14.546875 L 44.8125 15.355469 L 44.003906 15.355469 Z M 44.003906 14.546875 " fill-opacity="1" fill-rule="nonzero"/><g clip-path="url(#7589ca20b7)"><path fill="#ffd100" d="M 45.621094 14.546875 L 46.429688 14.546875 L 46.429688 15.355469 L 45.621094 15.355469 Z M 45.621094 14.546875 " fill-opacity="1" fill-rule="nonzero"/></g><g fill="#ffd100" fill-opacity="1"><g transform="translate(51.072666, 12.538841)"><g><path d="M 1.617188 -6.460938 L 0.539062 -6.460938 L 0.539062 -4.308594 L 1.617188 -4.308594 Z M 0.539062 -1.078125 L 1.617188 -1.078125 L 1.617188 -2.152344 L 0.539062 -2.152344 Z M 1.617188 0 L 4.847656 0 L 4.847656 -1.078125 L 1.617188 -1.078125 Z M 1.617188 -3.230469 L 4.847656 -3.230469 L 4.847656 -4.308594 L 1.617188 -4.308594 Z M 1.617188 -6.460938 L 4.847656 -6.460938 L 4.847656 -7.539062 L 1.617188 -7.539062 Z M 4.847656 -1.078125 L 5.921875 -1.078125 L 5.921875 -3.230469 L 4.847656 -3.230469 Z M 4.847656 -5.386719 L 5.921875 -5.386719 L 5.921875 -6.460938 L 4.847656 -6.460938 Z M 4.847656 -5.386719 "/></g></g></g><g fill="#ffd100" fill-opacity="1"><g transform="translate(59.936046, 12.538841)"><g><path d="M 4.847656 -1.078125 L 1.617188 -1.078125 L 1.617188 0 L 4.847656 0 Z M 0.539062 -1.078125 L 1.617188 -1.078125 L 1.617188 -7.539062 L 0.539062 -7.539062 Z M 4.847656 -1.078125 L 5.921875 -1.078125 L 5.921875 -7.539062 L 4.847656 -7.539062 Z M 4.847656 -1.078125 "/></g></g></g><g fill="#ffd100" fill-opacity="1"><g transform="translate(68.799426, 12.538841)"><g><path d="M 4.847656 0 L 5.921875 0 L 5.921875 -7.539062 L 4.847656 -7.539062 L 4.847656 -6.460938 L 3.769531 -6.460938 L 3.769531 -5.386719 L 4.847656 -5.386719 Z M 0.539062 0 L 1.617188 0 L 1.617188 -5.386719 L 2.691406 -5.386719 L 2.691406 -6.460938 L 1.617188 -6.460938 L 1.617188 -7.539062 L 0.539062 -7.539062 Z M 2.691406 -4.308594 L 3.769531 -4.308594 L 3.769531 -5.386719 L 2.691406 -5.386719 Z M 2.691406 -4.308594 "/></g></g></g><g fill="#ffd100" fill-opacity="1"><g transform="translate(77.662805, 12.538841)"><g><path d="M 4.847656 0 L 5.921875 0 L 5.921875 -7.539062 L 4.847656 -7.539062 L 4.847656 -6.460938 L 3.769531 -6.460938 L 3.769531 -5.386719 L 4.847656 -5.386719 Z M 0.539062 0 L 1.617188 0 L 1.617188 -5.386719 L 2.691406 -5.386719 L 2.691406 -6.460938 L 1.617188 -6.460938 L 1.617188 -7.539062 L 0.539062 -7.539062 Z M 2.691406 -4.308594 L 3.769531 -4.308594 L 3.769531 -5.386719 L 2.691406 -5.386719 Z M 2.691406 -4.308594 "/></g></g></g><g fill="#ffd100" fill-opacity="1"><g transform="translate(86.526185, 12.538841)"><g><path d="M 0.539062 0 L 5.914062 0 L 5.914062 -1.078125 L 1.617188 -1.078125 L 1.617188 -3.230469 L 4.847656 -3.230469 L 4.847656 -4.308594 L 1.617188 -4.308594 L 1.617188 -6.460938 L 5.921875 -6.460938 L 5.921875 -7.539062 L 0.539062 -7.539062 Z M 0.539062 0 "/></g></g></g><g fill="#ffd100" fill-opacity="1"><g transform="translate(95.389565, 12.538841)"><g><path d="M 0.539062 0 L 1.617188 0 L 1.617188 -3.230469 L 2.691406 -3.230469 L 2.691406 -2.152344 L 3.769531 -2.152344 L 3.769531 -3.230469 L 4.847656 -3.230469 L 4.847656 -4.308594 L 1.617188 -4.308594 L 1.617188 -6.460938 L 4.847656 -6.460938 L 4.847656 -7.539062 L 0.539062 -7.539062 Z M 3.769531 -1.078125 L 4.847656 -1.078125 L 4.847656 -2.152344 L 3.769531 -2.152344 Z M 4.847656 0 L 5.921875 0 L 5.921875 -1.078125 L 4.847656 -1.078125 Z M 4.847656 -4.308594 L 5.921875 -4.308594 L 5.921875 -6.460938 L 4.847656 -6.460938 Z M 4.847656 -4.308594 "/></g></g></g><g fill="#ffbd59" fill-opacity="1"><g transform="translate(50.753424, 25.924074)"><g><path d="M 2.140625 -8.570312 L 0.714844 -8.570312 L 0.714844 -5.714844 L 2.140625 -5.714844 Z M 0.714844 -1.429688 L 2.140625 -1.429688 L 2.140625 -2.855469 L 0.714844 -2.855469 Z M 2.140625 0 L 6.425781 0 L 6.425781 -1.429688 L 2.140625 -1.429688 Z M 2.140625 -4.285156 L 6.425781 -4.285156 L 6.425781 -5.714844 L 2.140625 -5.714844 Z M 2.140625 -8.570312 L 6.425781 -8.570312 L 6.425781 -9.996094 L 2.140625 -9.996094 Z M 6.425781 -1.429688 L 7.855469 -1.429688 L 7.855469 -4.285156 L 6.425781 -4.285156 Z M 6.425781 -7.140625 L 7.855469 -7.140625 L 7.855469 -8.570312 L 6.425781 -8.570312 Z M 6.425781 -7.140625 "/></g></g></g><g fill="#ffbd59" fill-opacity="1"><g transform="translate(59.322828, 25.924074)"><g><path d="M 6.425781 -1.429688 L 2.140625 -1.429688 L 2.140625 0 L 6.425781 0 Z M 0.714844 -1.429688 L 2.140625 -1.429688 L 2.140625 -9.996094 L 0.714844 -9.996094 Z M 6.425781 -1.429688 L 7.855469 -1.429688 L 7.855469 -9.996094 L 6.425781 -9.996094 Z M 6.425781 -1.429688 "/></g></g></g><g fill="#ffbd59" fill-opacity="1"><g transform="translate(67.892232, 25.924074)"><g><path d="M 6.425781 0 L 7.855469 0 L 7.855469 -9.996094 L 6.425781 -9.996094 L 6.425781 -5.714844 L 5 -5.714844 L 5 -4.285156 L 6.425781 -4.285156 Z M 0.714844 0 L 2.140625 0 L 2.140625 -7.140625 L 3.570312 -7.140625 L 3.570312 -8.570312 L 2.140625 -8.570312 L 2.140625 -9.996094 L 0.714844 -9.996094 Z M 3.570312 -5.714844 L 5 -5.714844 L 5 -7.140625 L 3.570312 -7.140625 Z M 3.570312 -5.714844 "/></g></g></g><g fill="#ffbd59" fill-opacity="1"><g transform="translate(76.461637, 25.924074)"><g><path d="M 2.140625 -8.570312 L 0.714844 -8.570312 L 0.714844 -5.714844 L 2.140625 -5.714844 Z M 0.714844 -1.429688 L 2.140625 -1.429688 L 2.140625 -2.855469 L 0.714844 -2.855469 Z M 2.140625 0 L 6.425781 0 L 6.425781 -1.429688 L 2.140625 -1.429688 Z M 2.140625 -4.285156 L 6.425781 -4.285156 L 6.425781 -5.714844 L 2.140625 -5.714844 Z M 2.140625 -8.570312 L 6.425781 -8.570312 L 6.425781 -9.996094 L 2.140625 -9.996094 Z M 6.425781 -1.429688 L 7.855469 -1.429688 L 7.855469 -4.285156 L 6.425781 -4.285156 Z M 6.425781 -7.140625 L 7.855469 -7.140625 L 7.855469 -8.570312 L 6.425781 -8.570312 Z M 6.425781 -7.140625 "/></g></g></g><g fill="#ffbd59" fill-opacity="1"><g transform="translate(85.031041, 25.924074)"><g><path d="M 0.714844 0 L 7.839844 0 L 7.839844 -1.429688 L 2.140625 -1.429688 L 2.140625 -4.285156 L 6.425781 -4.285156 L 6.425781 -5.714844 L 2.140625 -5.714844 L 2.140625 -8.570312 L 7.855469 -8.570312 L 7.855469 -9.996094 L 0.714844 -9.996094 Z M 0.714844 0 "/></g></g></g><g fill="#ffbd59" fill-opacity="1"><g transform="translate(93.600444, 25.924074)"><g><path d="M 3.570312 0 L 5 0 L 5 -8.570312 L 7.855469 -8.570312 L 7.855469 -9.996094 L 0.714844 -9.996094 L 0.714844 -8.570312 L 3.570312 -8.570312 Z M 3.570312 0 "/></g></g></g></svg>