<svg xmlns="http://www.w3.org/2000/svg" xmlns:xlink="http://www.w3.org/1999/xlink" width="2200" zoomAndPan="magnify" viewBox="0 0 1650 540.000001" height="720" preserveAspectRatio="xMidYMid meet" version="1.0"><defs><g/><clipPath id="8386fe3fa8"><path d="M 55.425781 269 L 594.425781 269 L 594.425781 300 L 55.425781 300 Z M 55.425781 269 " clip-rule="nonzero"/></clipPath><clipPath id="39e99d8d65"><path d="M 55.425781 314 L 594.425781 314 L 594.425781 345 L 55.425781 345 Z M 55.425781 314 " clip-rule="nonzero"/></clipPath><clipPath id="c86fc4d65c"><path d="M 55.425781 0 L 594.425781 0 L 594.425781 255 L 55.425781 255 Z M 55.425781 0 " clip-rule="nonzero"/></clipPath><clipPath id="fdc52e06ff"><path d="M 55.425781 0 L 594.425781 0 L 594.425781 255 L 55.425781 255 Z M 55.425781 0 " clip-rule="nonzero"/></clipPath><clipPath id="3f9e72709c"><path d="M 55.425781 269 L 594.425781 269 L 594.425781 300 L 55.425781 300 Z M 55.425781 269 " clip-rule="nonzero"/></clipPath><clipPath id="c32faaac0f"><path d="M 55.425781 314 L 594.425781 314 L 594.425781 345 L 55.425781 345 Z M 55.425781 314 " clip-rule="nonzero"/></clipPath><clipPath id="8269cf592f"><path d="M 55.425781 239 L 71 239 L 71 255 L 55.425781 255 Z M 55.425781 239 " clip-rule="nonzero"/></clipPath><clipPath id="d4ee41314b"><path d="M 55.425781 209 L 71 209 L 71 225 L 55.425781 225 Z M 55.425781 209 " clip-rule="nonzero"/></clipPath><clipPath id="dd84e6be21"><path d="M 579 224 L 594.425781 224 L 594.425781 240 L 579 240 Z M 579 224 " clip-rule="nonzero"/></clipPath><clipPath id="03874ae572"><path d="M 55.425781 224 L 594.425781 224 L 594.425781 255 L 55.425781 255 Z M 55.425781 224 " clip-rule="nonzero"/></clipPath><clipPath id="b8056d3b35"><path d="M 55.425781 194 L 594.425781 194 L 594.425781 225 L 55.425781 225 Z M 55.425781 194 " clip-rule="nonzero"/></clipPath><clipPath id="4da9c0d816"><path d="M 55.425781 329 L 71 329 L 71 345 L 55.425781 345 Z M 55.425781 329 " clip-rule="nonzero"/></clipPath><clipPath id="685c3d25b2"><path d="M 579 314 L 594.425781 314 L 594.425781 330 L 579 330 Z M 579 314 " clip-rule="nonzero"/></clipPath><clipPath id="de36e80457"><path d="M 579 269 L 594.425781 269 L 594.425781 285 L 579 285 Z M 579 269 " clip-rule="nonzero"/></clipPath></defs><g clip-path="url(#8386fe3fa8)"><path fill="#ff7f07" d="M 564.480469 269.5 L 55.425781 269.5 L 55.425781 299.445312 L 594.425781 299.445312 L 594.425781 269.5 Z M 564.480469 269.5 " fill-opacity="1" fill-rule="nonzero"/></g><g clip-path="url(#39e99d8d65)"><path fill="#ff7f07" d="M 564.480469 314.417969 L 55.425781 314.417969 L 55.425781 344.363281 L 594.425781 344.363281 L 594.425781 314.417969 Z M 564.480469 314.417969 " fill-opacity="1" fill-rule="nonzero"/></g><path fill="#ff7f07" d="M 519.566406 419.222656 L 100.34375 419.222656 L 100.34375 434.195312 L 115.3125 434.195312 L 115.3125 449.167969 L 534.539062 449.167969 L 534.539062 434.195312 L 549.511719 434.195312 L 549.511719 419.222656 Z M 519.566406 419.222656 " fill-opacity="1" fill-rule="nonzero"/><path fill="#ff7f07" d="M 459.675781 479.113281 L 160.230469 479.113281 L 160.230469 494.085938 L 175.203125 494.085938 L 175.203125 509.058594 L 474.648438 509.058594 L 474.648438 494.085938 L 489.621094 494.085938 L 489.621094 479.113281 Z M 459.675781 479.113281 " fill-opacity="1" fill-rule="nonzero"/><path fill="#ff7f07" d="M 250.066406 524.03125 L 399.789062 524.03125 L 399.789062 539 L 250.066406 539 Z M 250.066406 524.03125 " fill-opacity="1" fill-rule="nonzero"/><g clip-path="url(#c86fc4d65c)"><path fill="#ff7f07" d="M 579.453125 194.640625 L 579.453125 149.722656 L 564.480469 149.722656 L 564.480469 119.777344 L 549.511719 119.777344 L 549.511719 104.804688 L 534.539062 104.804688 L 534.539062 89.832031 L 519.566406 89.832031 L 519.566406 74.863281 L 504.59375 74.863281 L 504.59375 59.890625 L 489.621094 59.890625 L 489.621094 44.917969 L 474.648438 44.917969 L 474.648438 29.945312 L 444.703125 29.945312 L 444.703125 14.972656 L 399.789062 14.972656 L 399.789062 0 L 250.066406 0 L 250.066406 14.972656 L 205.148438 14.972656 L 205.148438 29.945312 L 175.203125 29.945312 L 175.203125 44.917969 L 160.230469 44.917969 L 160.230469 59.890625 L 145.257812 59.890625 L 145.257812 74.863281 L 130.285156 74.863281 L 130.285156 89.832031 L 115.3125 89.832031 L 115.3125 104.804688 L 100.34375 104.804688 L 100.34375 119.777344 L 85.371094 119.777344 L 85.371094 149.722656 L 70.398438 149.722656 L 70.398438 194.640625 L 55.425781 194.640625 L 55.425781 254.527344 L 594.425781 254.527344 L 594.425781 194.640625 Z M 579.453125 194.640625 " fill-opacity="1" fill-rule="nonzero"/></g><path fill="#ff7f07" d="M 549.511719 359.335938 L 70.398438 359.335938 L 70.398438 374.308594 L 85.371094 374.308594 L 85.371094 389.277344 L 564.480469 389.277344 L 564.480469 374.308594 L 579.453125 374.308594 L 579.453125 359.335938 Z M 549.511719 359.335938 " fill-opacity="1" fill-rule="nonzero"/><g clip-path="url(#fdc52e06ff)"><path fill="#ffd100" d="M 579.453125 194.640625 L 579.453125 149.722656 L 564.480469 149.722656 L 564.480469 119.777344 L 549.511719 119.777344 L 549.511719 104.804688 L 534.539062 104.804688 L 534.539062 89.832031 L 519.566406 89.832031 L 519.566406 74.863281 L 504.59375 74.863281 L 504.59375 59.890625 L 489.621094 59.890625 L 489.621094 44.917969 L 474.648438 44.917969 L 474.648438 29.945312 L 444.703125 29.945312 L 444.703125 14.972656 L 399.789062 14.972656 L 399.789062 0 L 250.066406 0 L 250.066406 14.972656 L 205.148438 14.972656 L 205.148438 29.945312 L 175.203125 29.945312 L 175.203125 44.917969 L 160.230469 44.917969 L 160.230469 59.890625 L 145.257812 59.890625 L 145.257812 74.863281 L 130.285156 74.863281 L 130.285156 89.832031 L 115.3125 89.832031 L 115.3125 104.804688 L 100.34375 104.804688 L 100.34375 119.777344 L 85.371094 119.777344 L 85.371094 149.722656 L 70.398438 149.722656 L 70.398438 194.640625 L 55.425781 194.640625 L 55.425781 254.527344 L 594.425781 254.527344 L 594.425781 194.640625 Z M 579.453125 194.640625 " fill-opacity="1" fill-rule="nonzero"/></g><path fill="#ff0070" d="M 85.371094 359.335938 L 85.371094 374.308594 L 70.398438 374.308594 L 70.398438 359.335938 Z M 85.371094 359.335938 " fill-opacity="1" fill-rule="nonzero"/><path fill="#ff0070" d="M 100.34375 419.222656 L 115.3125 419.222656 L 115.3125 434.195312 L 100.34375 434.195312 Z M 100.34375 419.222656 " fill-opacity="1" fill-rule="nonzero"/><path fill="#ff0070" d="M 115.3125 434.195312 L 130.285156 434.195312 L 130.285156 449.167969 L 115.3125 449.167969 Z M 115.3125 434.195312 " fill-opacity="1" fill-rule="nonzero"/><path fill="#ff0070" d="M 579.453125 359.335938 L 579.453125 374.308594 L 564.480469 374.308594 L 564.480469 359.335938 Z M 579.453125 359.335938 " fill-opacity="1" fill-rule="nonzero"/><path fill="#ff0070" d="M 549.511719 434.195312 L 534.539062 434.195312 L 534.539062 419.222656 L 549.511719 419.222656 Z M 549.511719 434.195312 " fill-opacity="1" fill-rule="nonzero"/><path fill="#ff0070" d="M 534.539062 449.167969 L 519.566406 449.167969 L 519.566406 434.195312 L 534.539062 434.195312 Z M 534.539062 449.167969 " fill-opacity="1" fill-rule="nonzero"/><g clip-path="url(#3f9e72709c)"><path fill="#ff7f07" d="M 55.425781 269.5 L 594.425781 269.5 L 594.425781 299.445312 L 55.425781 299.445312 Z M 55.425781 269.5 " fill-opacity="1" fill-rule="nonzero"/></g><g clip-path="url(#c32faaac0f)"><path fill="#ff7f07" d="M 55.425781 314.417969 L 594.425781 314.417969 L 594.425781 344.363281 L 55.425781 344.363281 Z M 55.425781 314.417969 " fill-opacity="1" fill-rule="nonzero"/></g><path fill="#ff0070" d="M 85.371094 359.335938 L 579.453125 359.335938 L 579.453125 374.308594 L 85.371094 374.308594 Z M 85.371094 359.335938 " fill-opacity="1" fill-rule="nonzero"/><path fill="#ff0070" d="M 85.371094 374.308594 L 564.480469 374.308594 L 564.480469 389.277344 L 85.371094 389.277344 Z M 85.371094 374.308594 " fill-opacity="1" fill-rule="nonzero"/><path fill="#ff0070" d="M 115.3125 419.222656 L 534.539062 419.222656 L 534.539062 449.167969 L 115.3125 449.167969 Z M 115.3125 419.222656 " fill-opacity="1" fill-rule="nonzero"/><path fill="#f20040" d="M 474.648438 479.113281 L 160.230469 479.113281 L 160.230469 494.085938 L 175.203125 494.085938 L 175.203125 509.058594 L 474.648438 509.058594 L 474.648438 494.085938 L 489.621094 494.085938 L 489.621094 479.113281 Z M 474.648438 479.113281 " fill-opacity="1" fill-rule="nonzero"/><path fill="#f20040" d="M 250.066406 524.03125 L 399.789062 524.03125 L 399.789062 539 L 250.066406 539 Z M 250.066406 524.03125 " fill-opacity="1" fill-rule="nonzero"/><g clip-path="url(#8269cf592f)"><path fill="#ff7f07" d="M 55.425781 239.554688 L 70.398438 239.554688 L 70.398438 254.527344 L 55.425781 254.527344 Z M 55.425781 239.554688 " fill-opacity="1" fill-rule="nonzero"/></g><path fill="#ff7f07" d="M 70.398438 224.585938 L 85.371094 224.585938 L 85.371094 239.554688 L 70.398438 239.554688 Z M 70.398438 224.585938 " fill-opacity="1" fill-rule="nonzero"/><g clip-path="url(#d4ee41314b)"><path fill="#ff7f07" d="M 55.425781 209.613281 L 70.398438 209.613281 L 70.398438 224.585938 L 55.425781 224.585938 Z M 55.425781 209.613281 " fill-opacity="0.498" fill-rule="nonzero"/></g><path fill="#ff7f07" d="M 85.371094 209.613281 L 100.34375 209.613281 L 100.34375 224.585938 L 85.371094 224.585938 Z M 85.371094 209.613281 " fill-opacity="0.498" fill-rule="nonzero"/><path fill="#ff7f07" d="M 115.3125 209.613281 L 130.285156 209.613281 L 130.285156 224.585938 L 115.3125 224.585938 Z M 115.3125 209.613281 " fill-opacity="0.498" fill-rule="nonzero"/><path fill="#ff7f07" d="M 145.257812 209.613281 L 160.230469 209.613281 L 160.230469 224.585938 L 145.257812 224.585938 Z M 145.257812 209.613281 " fill-opacity="0.498" fill-rule="nonzero"/><path fill="#ff7f07" d="M 175.203125 209.613281 L 190.175781 209.613281 L 190.175781 224.585938 L 175.203125 224.585938 Z M 175.203125 209.613281 " fill-opacity="0.498" fill-rule="nonzero"/><path fill="#ff7f07" d="M 205.148438 209.613281 L 220.121094 209.613281 L 220.121094 224.585938 L 205.148438 224.585938 Z M 205.148438 209.613281 " fill-opacity="0.498" fill-rule="nonzero"/><path fill="#ff7f07" d="M 235.09375 209.613281 L 250.066406 209.613281 L 250.066406 224.585938 L 235.09375 224.585938 Z M 235.09375 209.613281 " fill-opacity="0.498" fill-rule="nonzero"/><path fill="#ff7f07" d="M 265.035156 209.613281 L 280.007812 209.613281 L 280.007812 224.585938 L 265.035156 224.585938 Z M 265.035156 209.613281 " fill-opacity="0.498" fill-rule="nonzero"/><path fill="#ff7f07" d="M 294.980469 209.613281 L 309.953125 209.613281 L 309.953125 224.585938 L 294.980469 224.585938 Z M 294.980469 209.613281 " fill-opacity="0.498" fill-rule="nonzero"/><path fill="#ff7f07" d="M 324.925781 209.613281 L 339.898438 209.613281 L 339.898438 224.585938 L 324.925781 224.585938 Z M 324.925781 209.613281 " fill-opacity="0.498" fill-rule="nonzero"/><path fill="#ff7f07" d="M 354.871094 209.613281 L 369.84375 209.613281 L 369.84375 224.585938 L 354.871094 224.585938 Z M 354.871094 209.613281 " fill-opacity="0.498" fill-rule="nonzero"/><path fill="#ff7f07" d="M 384.816406 209.613281 L 399.789062 209.613281 L 399.789062 224.585938 L 384.816406 224.585938 Z M 384.816406 209.613281 " fill-opacity="0.498" fill-rule="nonzero"/><path fill="#ff7f07" d="M 414.757812 209.613281 L 429.730469 209.613281 L 429.730469 224.585938 L 414.757812 224.585938 Z M 414.757812 209.613281 " fill-opacity="0.498" fill-rule="nonzero"/><path fill="#ff7f07" d="M 444.703125 209.613281 L 459.675781 209.613281 L 459.675781 224.585938 L 444.703125 224.585938 Z M 444.703125 209.613281 " fill-opacity="0.498" fill-rule="nonzero"/><path fill="#ff7f07" d="M 474.648438 209.613281 L 489.621094 209.613281 L 489.621094 224.585938 L 474.648438 224.585938 Z M 474.648438 209.613281 " fill-opacity="0.498" fill-rule="nonzero"/><path fill="#ff7f07" d="M 504.59375 209.613281 L 519.566406 209.613281 L 519.566406 224.585938 L 504.59375 224.585938 Z M 504.59375 209.613281 " fill-opacity="0.498" fill-rule="nonzero"/><path fill="#ff7f07" d="M 534.539062 209.613281 L 549.511719 209.613281 L 549.511719 224.585938 L 534.539062 224.585938 Z M 534.539062 209.613281 " fill-opacity="0.498" fill-rule="nonzero"/><path fill="#ff7f07" d="M 564.480469 209.613281 L 579.453125 209.613281 L 579.453125 224.585938 L 564.480469 224.585938 Z M 564.480469 209.613281 " fill-opacity="0.498" fill-rule="nonzero"/><path fill="#ff7f07" d="M 85.371094 179.667969 L 100.34375 179.667969 L 100.34375 194.640625 L 85.371094 194.640625 Z M 85.371094 179.667969 " fill-opacity="0.498" fill-rule="nonzero"/><path fill="#ff7f07" d="M 115.3125 179.667969 L 130.285156 179.667969 L 130.285156 194.640625 L 115.3125 194.640625 Z M 115.3125 179.667969 " fill-opacity="0.498" fill-rule="nonzero"/><path fill="#ff7f07" d="M 145.257812 179.667969 L 160.230469 179.667969 L 160.230469 194.640625 L 145.257812 194.640625 Z M 145.257812 179.667969 " fill-opacity="0.498" fill-rule="nonzero"/><path fill="#ff7f07" d="M 175.203125 179.667969 L 190.175781 179.667969 L 190.175781 194.640625 L 175.203125 194.640625 Z M 175.203125 179.667969 " fill-opacity="0.498" fill-rule="nonzero"/><path fill="#ff7f07" d="M 205.148438 179.667969 L 220.121094 179.667969 L 220.121094 194.640625 L 205.148438 194.640625 Z M 205.148438 179.667969 " fill-opacity="0.498" fill-rule="nonzero"/><path fill="#ff7f07" d="M 235.09375 179.667969 L 250.066406 179.667969 L 250.066406 194.640625 L 235.09375 194.640625 Z M 235.09375 179.667969 " fill-opacity="0.498" fill-rule="nonzero"/><path fill="#ff7f07" d="M 265.035156 179.667969 L 280.007812 179.667969 L 280.007812 194.640625 L 265.035156 194.640625 Z M 265.035156 179.667969 " fill-opacity="0.498" fill-rule="nonzero"/><path fill="#ff7f07" d="M 294.980469 179.667969 L 309.953125 179.667969 L 309.953125 194.640625 L 294.980469 194.640625 Z M 294.980469 179.667969 " fill-opacity="0.498" fill-rule="nonzero"/><path fill="#ff7f07" d="M 324.925781 179.667969 L 339.898438 179.667969 L 339.898438 194.640625 L 324.925781 194.640625 Z M 324.925781 179.667969 " fill-opacity="0.498" fill-rule="nonzero"/><path fill="#ff7f07" d="M 354.871094 179.667969 L 369.84375 179.667969 L 369.84375 194.640625 L 354.871094 194.640625 Z M 354.871094 179.667969 " fill-opacity="0.498" fill-rule="nonzero"/><path fill="#ff7f07" d="M 384.816406 179.667969 L 399.789062 179.667969 L 399.789062 194.640625 L 384.816406 194.640625 Z M 384.816406 179.667969 " fill-opacity="0.498" fill-rule="nonzero"/><path fill="#ff7f07" d="M 414.757812 179.667969 L 429.730469 179.667969 L 429.730469 194.640625 L 414.757812 194.640625 Z M 414.757812 179.667969 " fill-opacity="0.498" fill-rule="nonzero"/><path fill="#ff7f07" d="M 444.703125 179.667969 L 459.675781 179.667969 L 459.675781 194.640625 L 444.703125 194.640625 Z M 444.703125 179.667969 " fill-opacity="0.498" fill-rule="nonzero"/><path fill="#ff7f07" d="M 474.648438 179.667969 L 489.621094 179.667969 L 489.621094 194.640625 L 474.648438 194.640625 Z M 474.648438 179.667969 " fill-opacity="0.498" fill-rule="nonzero"/><path fill="#ff7f07" d="M 504.59375 179.667969 L 519.566406 179.667969 L 519.566406 194.640625 L 504.59375 194.640625 Z M 504.59375 179.667969 " fill-opacity="0.498" fill-rule="nonzero"/><path fill="#ff7f07" d="M 534.539062 179.667969 L 549.511719 179.667969 L 549.511719 194.640625 L 534.539062 194.640625 Z M 534.539062 179.667969 " fill-opacity="0.498" fill-rule="nonzero"/><path fill="#ff7f07" d="M 564.480469 179.667969 L 579.453125 179.667969 L 579.453125 194.640625 L 564.480469 194.640625 Z M 564.480469 179.667969 " fill-opacity="0.498" fill-rule="nonzero"/><path fill="#ff7f07" d="M 85.371094 149.722656 L 100.34375 149.722656 L 100.34375 164.695312 L 85.371094 164.695312 Z M 85.371094 149.722656 " fill-opacity="0.2471" fill-rule="nonzero"/><path fill="#ff7f07" d="M 115.3125 149.722656 L 130.285156 149.722656 L 130.285156 164.695312 L 115.3125 164.695312 Z M 115.3125 149.722656 " fill-opacity="0.2471" fill-rule="nonzero"/><path fill="#ff7f07" d="M 145.257812 149.722656 L 160.230469 149.722656 L 160.230469 164.695312 L 145.257812 164.695312 Z M 145.257812 149.722656 " fill-opacity="0.2471" fill-rule="nonzero"/><path fill="#ff7f07" d="M 175.203125 149.722656 L 190.175781 149.722656 L 190.175781 164.695312 L 175.203125 164.695312 Z M 175.203125 149.722656 " fill-opacity="0.2471" fill-rule="nonzero"/><path fill="#ff7f07" d="M 205.148438 149.722656 L 220.121094 149.722656 L 220.121094 164.695312 L 205.148438 164.695312 Z M 205.148438 149.722656 " fill-opacity="0.2471" fill-rule="nonzero"/><path fill="#ff7f07" d="M 235.09375 149.722656 L 250.066406 149.722656 L 250.066406 164.695312 L 235.09375 164.695312 Z M 235.09375 149.722656 " fill-opacity="0.2471" fill-rule="nonzero"/><path fill="#ff7f07" d="M 265.035156 149.722656 L 280.007812 149.722656 L 280.007812 164.695312 L 265.035156 164.695312 Z M 265.035156 149.722656 " fill-opacity="0.2471" fill-rule="nonzero"/><path fill="#ff7f07" d="M 294.980469 149.722656 L 309.953125 149.722656 L 309.953125 164.695312 L 294.980469 164.695312 Z M 294.980469 149.722656 " fill-opacity="0.2471" fill-rule="nonzero"/><path fill="#ff7f07" d="M 324.925781 149.722656 L 339.898438 149.722656 L 339.898438 164.695312 L 324.925781 164.695312 Z M 324.925781 149.722656 " fill-opacity="0.2471" fill-rule="nonzero"/><path fill="#ff7f07" d="M 354.871094 149.722656 L 369.84375 149.722656 L 369.84375 164.695312 L 354.871094 164.695312 Z M 354.871094 149.722656 " fill-opacity="0.2471" fill-rule="nonzero"/><path fill="#ff7f07" d="M 384.816406 149.722656 L 399.789062 149.722656 L 399.789062 164.695312 L 384.816406 164.695312 Z M 384.816406 149.722656 " fill-opacity="0.2471" fill-rule="nonzero"/><path fill="#ff7f07" d="M 414.757812 149.722656 L 429.730469 149.722656 L 429.730469 164.695312 L 414.757812 164.695312 Z M 414.757812 149.722656 " fill-opacity="0.2471" fill-rule="nonzero"/><path fill="#ff7f07" d="M 444.703125 149.722656 L 459.675781 149.722656 L 459.675781 164.695312 L 444.703125 164.695312 Z M 444.703125 149.722656 " fill-opacity="0.2471" fill-rule="nonzero"/><path fill="#ff7f07" d="M 474.648438 149.722656 L 489.621094 149.722656 L 489.621094 164.695312 L 474.648438 164.695312 Z M 474.648438 149.722656 " fill-opacity="0.2471" fill-rule="nonzero"/><path fill="#ff7f07" d="M 504.59375 149.722656 L 519.566406 149.722656 L 519.566406 164.695312 L 504.59375 164.695312 Z M 504.59375 149.722656 " fill-opacity="0.2471" fill-rule="nonzero"/><path fill="#ff7f07" d="M 534.539062 149.722656 L 549.511719 149.722656 L 549.511719 164.695312 L 534.539062 164.695312 Z M 534.539062 149.722656 " fill-opacity="0.2471" fill-rule="nonzero"/><path fill="#ff7f07" d="M 564.480469 149.722656 L 579.453125 149.722656 L 579.453125 164.695312 L 564.480469 164.695312 Z M 564.480469 149.722656 " fill-opacity="0.2471" fill-rule="nonzero"/><path fill="#ff7f07" d="M 100.34375 224.585938 L 115.3125 224.585938 L 115.3125 239.554688 L 100.34375 239.554688 Z M 100.34375 224.585938 " fill-opacity="1" fill-rule="nonzero"/><path fill="#ff7f07" d="M 130.285156 224.585938 L 145.257812 224.585938 L 145.257812 239.554688 L 130.285156 239.554688 Z M 130.285156 224.585938 " fill-opacity="1" fill-rule="nonzero"/><path fill="#ff7f07" d="M 160.230469 224.585938 L 175.203125 224.585938 L 175.203125 239.554688 L 160.230469 239.554688 Z M 160.230469 224.585938 " fill-opacity="1" fill-rule="nonzero"/><path fill="#ff7f07" d="M 190.175781 224.585938 L 205.148438 224.585938 L 205.148438 239.554688 L 190.175781 239.554688 Z M 190.175781 224.585938 " fill-opacity="1" fill-rule="nonzero"/><path fill="#ff7f07" d="M 220.121094 224.585938 L 235.09375 224.585938 L 235.09375 239.554688 L 220.121094 239.554688 Z M 220.121094 224.585938 " fill-opacity="1" fill-rule="nonzero"/><path fill="#ff7f07" d="M 250.066406 224.585938 L 265.035156 224.585938 L 265.035156 239.554688 L 250.066406 239.554688 Z M 250.066406 224.585938 " fill-opacity="1" fill-rule="nonzero"/><path fill="#ff7f07" d="M 280.007812 224.585938 L 294.980469 224.585938 L 294.980469 239.554688 L 280.007812 239.554688 Z M 280.007812 224.585938 " fill-opacity="1" fill-rule="nonzero"/><path fill="#ff7f07" d="M 309.953125 224.585938 L 324.925781 224.585938 L 324.925781 239.554688 L 309.953125 239.554688 Z M 309.953125 224.585938 " fill-opacity="1" fill-rule="nonzero"/><path fill="#ff7f07" d="M 339.898438 224.585938 L 354.871094 224.585938 L 354.871094 239.554688 L 339.898438 239.554688 Z M 339.898438 224.585938 " fill-opacity="1" fill-rule="nonzero"/><path fill="#ff7f07" d="M 369.84375 224.585938 L 384.816406 224.585938 L 384.816406 239.554688 L 369.84375 239.554688 Z M 369.84375 224.585938 " fill-opacity="1" fill-rule="nonzero"/><path fill="#ff7f07" d="M 399.789062 224.585938 L 414.757812 224.585938 L 414.757812 239.554688 L 399.789062 239.554688 Z M 399.789062 224.585938 " fill-opacity="1" fill-rule="nonzero"/><path fill="#ff7f07" d="M 429.730469 224.585938 L 444.703125 224.585938 L 444.703125 239.554688 L 429.730469 239.554688 Z M 429.730469 224.585938 " fill-opacity="1" fill-rule="nonzero"/><path fill="#ff7f07" d="M 459.675781 224.585938 L 474.648438 224.585938 L 474.648438 239.554688 L 459.675781 239.554688 Z M 459.675781 224.585938 " fill-opacity="1" fill-rule="nonzero"/><path fill="#ff7f07" d="M 489.621094 224.585938 L 504.59375 224.585938 L 504.59375 239.554688 L 489.621094 239.554688 Z M 489.621094 224.585938 " fill-opacity="1" fill-rule="nonzero"/><path fill="#ff7f07" d="M 519.566406 224.585938 L 534.539062 224.585938 L 534.539062 239.554688 L 519.566406 239.554688 Z M 519.566406 224.585938 " fill-opacity="1" fill-rule="nonzero"/><path fill="#ff7f07" d="M 549.511719 224.585938 L 564.480469 224.585938 L 564.480469 239.554688 L 549.511719 239.554688 Z M 549.511719 224.585938 " fill-opacity="1" fill-rule="nonzero"/><g clip-path="url(#dd84e6be21)"><path fill="#ff7f07" d="M 579.453125 224.585938 L 594.425781 224.585938 L 594.425781 239.554688 L 579.453125 239.554688 Z M 579.453125 224.585938 " fill-opacity="1" fill-rule="nonzero"/></g><path fill="#ff7f07" d="M 85.371094 239.554688 L 100.34375 239.554688 L 100.34375 254.527344 L 85.371094 254.527344 Z M 85.371094 239.554688 " fill-opacity="1" fill-rule="nonzero"/><path fill="#ff7f07" d="M 115.3125 239.554688 L 130.285156 239.554688 L 130.285156 254.527344 L 115.3125 254.527344 Z M 115.3125 239.554688 " fill-opacity="1" fill-rule="nonzero"/><path fill="#ff7f07" d="M 145.257812 239.554688 L 160.230469 239.554688 L 160.230469 254.527344 L 145.257812 254.527344 Z M 145.257812 239.554688 " fill-opacity="1" fill-rule="nonzero"/><path fill="#ff7f07" d="M 175.203125 239.554688 L 190.175781 239.554688 L 190.175781 254.527344 L 175.203125 254.527344 Z M 175.203125 239.554688 " fill-opacity="1" fill-rule="nonzero"/><path fill="#ff7f07" d="M 205.148438 239.554688 L 220.121094 239.554688 L 220.121094 254.527344 L 205.148438 254.527344 Z M 205.148438 239.554688 " fill-opacity="1" fill-rule="nonzero"/><path fill="#ff7f07" d="M 235.09375 239.554688 L 250.066406 239.554688 L 250.066406 254.527344 L 235.09375 254.527344 Z M 235.09375 239.554688 " fill-opacity="1" fill-rule="nonzero"/><path fill="#ff7f07" d="M 265.035156 239.554688 L 280.007812 239.554688 L 280.007812 254.527344 L 265.035156 254.527344 Z M 265.035156 239.554688 " fill-opacity="1" fill-rule="nonzero"/><path fill="#ff7f07" d="M 294.980469 239.554688 L 309.953125 239.554688 L 309.953125 254.527344 L 294.980469 254.527344 Z M 294.980469 239.554688 " fill-opacity="1" fill-rule="nonzero"/><path fill="#ff7f07" d="M 324.925781 239.554688 L 339.898438 239.554688 L 339.898438 254.527344 L 324.925781 254.527344 Z M 324.925781 239.554688 " fill-opacity="1" fill-rule="nonzero"/><path fill="#ff7f07" d="M 354.871094 239.554688 L 369.84375 239.554688 L 369.84375 254.527344 L 354.871094 254.527344 Z M 354.871094 239.554688 " fill-opacity="1" fill-rule="nonzero"/><path fill="#ff7f07" d="M 384.816406 239.554688 L 399.789062 239.554688 L 399.789062 254.527344 L 384.816406 254.527344 Z M 384.816406 239.554688 " fill-opacity="1" fill-rule="nonzero"/><path fill="#ff7f07" d="M 414.757812 239.554688 L 429.730469 239.554688 L 429.730469 254.527344 L 414.757812 254.527344 Z M 414.757812 239.554688 " fill-opacity="1" fill-rule="nonzero"/><path fill="#ff7f07" d="M 444.703125 239.554688 L 459.675781 239.554688 L 459.675781 254.527344 L 444.703125 254.527344 Z M 444.703125 239.554688 " fill-opacity="1" fill-rule="nonzero"/><path fill="#ff7f07" d="M 474.648438 239.554688 L 489.621094 239.554688 L 489.621094 254.527344 L 474.648438 254.527344 Z M 474.648438 239.554688 " fill-opacity="1" fill-rule="nonzero"/><path fill="#ff7f07" d="M 504.59375 239.554688 L 519.566406 239.554688 L 519.566406 254.527344 L 504.59375 254.527344 Z M 504.59375 239.554688 " fill-opacity="1" fill-rule="nonzero"/><path fill="#ff7f07" d="M 534.539062 239.554688 L 549.511719 239.554688 L 549.511719 254.527344 L 534.539062 254.527344 Z M 534.539062 239.554688 " fill-opacity="1" fill-rule="nonzero"/><path fill="#ff7f07" d="M 564.480469 239.554688 L 579.453125 239.554688 L 579.453125 254.527344 L 564.480469 254.527344 Z M 564.480469 239.554688 " fill-opacity="1" fill-rule="nonzero"/><g clip-path="url(#03874ae572)"><path fill="#ff7f07" d="M 55.425781 224.585938 L 594.425781 224.585938 L 594.425781 254.527344 L 55.425781 254.527344 Z M 55.425781 224.585938 " fill-opacity="0.498" fill-rule="nonzero"/></g><g clip-path="url(#b8056d3b35)"><path fill="#ff7f07" d="M 55.425781 194.640625 L 594.425781 194.640625 L 594.425781 224.585938 L 55.425781 224.585938 Z M 55.425781 194.640625 " fill-opacity="0.2" fill-rule="nonzero"/></g><path fill="#ff7f07" d="M 70.398438 164.695312 L 579.453125 164.695312 L 579.453125 194.640625 L 70.398438 194.640625 Z M 70.398438 164.695312 " fill-opacity="0.098" fill-rule="nonzero"/><g clip-path="url(#4da9c0d816)"><path fill="#ff0070" d="M 55.425781 329.390625 L 70.398438 329.390625 L 70.398438 344.363281 L 55.425781 344.363281 Z M 55.425781 329.390625 " fill-opacity="1" fill-rule="nonzero"/></g><path fill="#ff0070" d="M 70.398438 314.417969 L 85.371094 314.417969 L 85.371094 329.390625 L 70.398438 329.390625 Z M 70.398438 314.417969 " fill-opacity="1" fill-rule="nonzero"/><path fill="#ff0070" d="M 100.34375 314.417969 L 115.3125 314.417969 L 115.3125 329.390625 L 100.34375 329.390625 Z M 100.34375 314.417969 " fill-opacity="1" fill-rule="nonzero"/><path fill="#ff0070" d="M 130.285156 314.417969 L 145.257812 314.417969 L 145.257812 329.390625 L 130.285156 329.390625 Z M 130.285156 314.417969 " fill-opacity="1" fill-rule="nonzero"/><path fill="#ff0070" d="M 160.230469 314.417969 L 175.203125 314.417969 L 175.203125 329.390625 L 160.230469 329.390625 Z M 160.230469 314.417969 " fill-opacity="1" fill-rule="nonzero"/><path fill="#ff0070" d="M 190.175781 314.417969 L 205.148438 314.417969 L 205.148438 329.390625 L 190.175781 329.390625 Z M 190.175781 314.417969 " fill-opacity="1" fill-rule="nonzero"/><path fill="#ff0070" d="M 220.121094 314.417969 L 235.09375 314.417969 L 235.09375 329.390625 L 220.121094 329.390625 Z M 220.121094 314.417969 " fill-opacity="1" fill-rule="nonzero"/><path fill="#ff0070" d="M 250.066406 314.417969 L 265.035156 314.417969 L 265.035156 329.390625 L 250.066406 329.390625 Z M 250.066406 314.417969 " fill-opacity="1" fill-rule="nonzero"/><path fill="#ff0070" d="M 280.007812 314.417969 L 294.980469 314.417969 L 294.980469 329.390625 L 280.007812 329.390625 Z M 280.007812 314.417969 " fill-opacity="1" fill-rule="nonzero"/><path fill="#ff0070" d="M 309.953125 314.417969 L 324.925781 314.417969 L 324.925781 329.390625 L 309.953125 329.390625 Z M 309.953125 314.417969 " fill-opacity="1" fill-rule="nonzero"/><path fill="#ff0070" d="M 339.898438 314.417969 L 354.871094 314.417969 L 354.871094 329.390625 L 339.898438 329.390625 Z M 339.898438 314.417969 " fill-opacity="1" fill-rule="nonzero"/><path fill="#ff0070" d="M 369.84375 314.417969 L 384.816406 314.417969 L 384.816406 329.390625 L 369.84375 329.390625 Z M 369.84375 314.417969 " fill-opacity="1" fill-rule="nonzero"/><path fill="#ff0070" d="M 399.789062 314.417969 L 414.757812 314.417969 L 414.757812 329.390625 L 399.789062 329.390625 Z M 399.789062 314.417969 " fill-opacity="1" fill-rule="nonzero"/><path fill="#ff0070" d="M 429.730469 314.417969 L 444.703125 314.417969 L 444.703125 329.390625 L 429.730469 329.390625 Z M 429.730469 314.417969 " fill-opacity="1" fill-rule="nonzero"/><path fill="#ff0070" d="M 459.675781 314.417969 L 474.648438 314.417969 L 474.648438 329.390625 L 459.675781 329.390625 Z M 459.675781 314.417969 " fill-opacity="1" fill-rule="nonzero"/><path fill="#ff0070" d="M 489.621094 314.417969 L 504.59375 314.417969 L 504.59375 329.390625 L 489.621094 329.390625 Z M 489.621094 314.417969 " fill-opacity="1" fill-rule="nonzero"/><path fill="#ff0070" d="M 519.566406 314.417969 L 534.539062 314.417969 L 534.539062 329.390625 L 519.566406 329.390625 Z M 519.566406 314.417969 " fill-opacity="1" fill-rule="nonzero"/><path fill="#ff0070" d="M 549.511719 314.417969 L 564.480469 314.417969 L 564.480469 329.390625 L 549.511719 329.390625 Z M 549.511719 314.417969 " fill-opacity="1" fill-rule="nonzero"/><g clip-path="url(#685c3d25b2)"><path fill="#ff0070" d="M 579.453125 314.417969 L 594.425781 314.417969 L 594.425781 329.390625 L 579.453125 329.390625 Z M 579.453125 314.417969 " fill-opacity="1" fill-rule="nonzero"/></g><path fill="#ff0070" d="M 85.371094 329.390625 L 100.34375 329.390625 L 100.34375 344.363281 L 85.371094 344.363281 Z M 85.371094 329.390625 " fill-opacity="1" fill-rule="nonzero"/><path fill="#ff0070" d="M 115.3125 329.390625 L 130.285156 329.390625 L 130.285156 344.363281 L 115.3125 344.363281 Z M 115.3125 329.390625 " fill-opacity="1" fill-rule="nonzero"/><path fill="#ff0070" d="M 145.257812 329.390625 L 160.230469 329.390625 L 160.230469 344.363281 L 145.257812 344.363281 Z M 145.257812 329.390625 " fill-opacity="1" fill-rule="nonzero"/><path fill="#ff0070" d="M 175.203125 329.390625 L 190.175781 329.390625 L 190.175781 344.363281 L 175.203125 344.363281 Z M 175.203125 329.390625 " fill-opacity="1" fill-rule="nonzero"/><path fill="#ff0070" d="M 205.148438 329.390625 L 220.121094 329.390625 L 220.121094 344.363281 L 205.148438 344.363281 Z M 205.148438 329.390625 " fill-opacity="1" fill-rule="nonzero"/><path fill="#ff0070" d="M 235.09375 329.390625 L 250.066406 329.390625 L 250.066406 344.363281 L 235.09375 344.363281 Z M 235.09375 329.390625 " fill-opacity="1" fill-rule="nonzero"/><path fill="#ff0070" d="M 265.035156 329.390625 L 280.007812 329.390625 L 280.007812 344.363281 L 265.035156 344.363281 Z M 265.035156 329.390625 " fill-opacity="1" fill-rule="nonzero"/><path fill="#ff0070" d="M 294.980469 329.390625 L 309.953125 329.390625 L 309.953125 344.363281 L 294.980469 344.363281 Z M 294.980469 329.390625 " fill-opacity="1" fill-rule="nonzero"/><path fill="#ff0070" d="M 324.925781 329.390625 L 339.898438 329.390625 L 339.898438 344.363281 L 324.925781 344.363281 Z M 324.925781 329.390625 " fill-opacity="1" fill-rule="nonzero"/><path fill="#ff0070" d="M 354.871094 329.390625 L 369.84375 329.390625 L 369.84375 344.363281 L 354.871094 344.363281 Z M 354.871094 329.390625 " fill-opacity="1" fill-rule="nonzero"/><path fill="#ff0070" d="M 384.816406 329.390625 L 399.789062 329.390625 L 399.789062 344.363281 L 384.816406 344.363281 Z M 384.816406 329.390625 " fill-opacity="1" fill-rule="nonzero"/><path fill="#ff0070" d="M 414.757812 329.390625 L 429.730469 329.390625 L 429.730469 344.363281 L 414.757812 344.363281 Z M 414.757812 329.390625 " fill-opacity="1" fill-rule="nonzero"/><path fill="#ff0070" d="M 444.703125 329.390625 L 459.675781 329.390625 L 459.675781 344.363281 L 444.703125 344.363281 Z M 444.703125 329.390625 " fill-opacity="1" fill-rule="nonzero"/><path fill="#ff0070" d="M 474.648438 329.390625 L 489.621094 329.390625 L 489.621094 344.363281 L 474.648438 344.363281 Z M 474.648438 329.390625 " fill-opacity="1" fill-rule="nonzero"/><path fill="#ff0070" d="M 504.59375 329.390625 L 519.566406 329.390625 L 519.566406 344.363281 L 504.59375 344.363281 Z M 504.59375 329.390625 " fill-opacity="1" fill-rule="nonzero"/><path fill="#ff0070" d="M 534.539062 329.390625 L 549.511719 329.390625 L 549.511719 344.363281 L 534.539062 344.363281 Z M 534.539062 329.390625 " fill-opacity="1" fill-rule="nonzero"/><path fill="#ff0070" d="M 564.480469 329.390625 L 579.453125 329.390625 L 579.453125 344.363281 L 564.480469 344.363281 Z M 564.480469 329.390625 " fill-opacity="1" fill-rule="nonzero"/><path fill="#f20040" d="M 130.285156 434.195312 L 145.257812 434.195312 L 145.257812 449.167969 L 130.285156 449.167969 Z M 130.285156 434.195312 " fill-opacity="1" fill-rule="nonzero"/><path fill="#f20040" d="M 145.257812 419.222656 L 160.230469 419.222656 L 160.230469 434.195312 L 145.257812 434.195312 Z M 145.257812 419.222656 " fill-opacity="1" fill-rule="nonzero"/><path fill="#f20040" d="M 175.203125 419.222656 L 190.175781 419.222656 L 190.175781 434.195312 L 175.203125 434.195312 Z M 175.203125 419.222656 " fill-opacity="1" fill-rule="nonzero"/><path fill="#f20040" d="M 205.148438 419.222656 L 220.121094 419.222656 L 220.121094 434.195312 L 205.148438 434.195312 Z M 205.148438 419.222656 " fill-opacity="1" fill-rule="nonzero"/><path fill="#f20040" d="M 235.09375 419.222656 L 250.066406 419.222656 L 250.066406 434.195312 L 235.09375 434.195312 Z M 235.09375 419.222656 " fill-opacity="1" fill-rule="nonzero"/><path fill="#f20040" d="M 265.035156 419.222656 L 280.007812 419.222656 L 280.007812 434.195312 L 265.035156 434.195312 Z M 265.035156 419.222656 " fill-opacity="1" fill-rule="nonzero"/><path fill="#f20040" d="M 294.980469 419.222656 L 309.953125 419.222656 L 309.953125 434.195312 L 294.980469 434.195312 Z M 294.980469 419.222656 " fill-opacity="1" fill-rule="nonzero"/><path fill="#f20040" d="M 324.925781 419.222656 L 339.898438 419.222656 L 339.898438 434.195312 L 324.925781 434.195312 Z M 324.925781 419.222656 " fill-opacity="1" fill-rule="nonzero"/><path fill="#f20040" d="M 354.871094 419.222656 L 369.84375 419.222656 L 369.84375 434.195312 L 354.871094 434.195312 Z M 354.871094 419.222656 " fill-opacity="1" fill-rule="nonzero"/><path fill="#f20040" d="M 384.816406 419.222656 L 399.789062 419.222656 L 399.789062 434.195312 L 384.816406 434.195312 Z M 384.816406 419.222656 " fill-opacity="1" fill-rule="nonzero"/><path fill="#f20040" d="M 414.757812 419.222656 L 429.730469 419.222656 L 429.730469 434.195312 L 414.757812 434.195312 Z M 414.757812 419.222656 " fill-opacity="1" fill-rule="nonzero"/><path fill="#f20040" d="M 444.703125 419.222656 L 459.675781 419.222656 L 459.675781 434.195312 L 444.703125 434.195312 Z M 444.703125 419.222656 " fill-opacity="1" fill-rule="nonzero"/><path fill="#f20040" d="M 474.648438 419.222656 L 489.621094 419.222656 L 489.621094 434.195312 L 474.648438 434.195312 Z M 474.648438 419.222656 " fill-opacity="1" fill-rule="nonzero"/><path fill="#f20040" d="M 504.59375 419.222656 L 519.566406 419.222656 L 519.566406 434.195312 L 504.59375 434.195312 Z M 504.59375 419.222656 " fill-opacity="1" fill-rule="nonzero"/><path fill="#f20040" d="M 534.539062 419.222656 L 549.511719 419.222656 L 549.511719 434.195312 L 534.539062 434.195312 Z M 534.539062 419.222656 " fill-opacity="1" fill-rule="nonzero"/><path fill="#f20040" d="M 115.3125 419.222656 L 130.285156 419.222656 L 130.285156 434.195312 L 115.3125 434.195312 Z M 115.3125 419.222656 " fill-opacity="1" fill-rule="nonzero"/><path fill="#f20040" d="M 160.230469 434.195312 L 175.203125 434.195312 L 175.203125 449.167969 L 160.230469 449.167969 Z M 160.230469 434.195312 " fill-opacity="1" fill-rule="nonzero"/><path fill="#f20040" d="M 190.175781 434.195312 L 205.148438 434.195312 L 205.148438 449.167969 L 190.175781 449.167969 Z M 190.175781 434.195312 " fill-opacity="1" fill-rule="nonzero"/><path fill="#f20040" d="M 220.121094 434.195312 L 235.09375 434.195312 L 235.09375 449.167969 L 220.121094 449.167969 Z M 220.121094 434.195312 " fill-opacity="1" fill-rule="nonzero"/><path fill="#f20040" d="M 250.066406 434.195312 L 265.035156 434.195312 L 265.035156 449.167969 L 250.066406 449.167969 Z M 250.066406 434.195312 " fill-opacity="1" fill-rule="nonzero"/><path fill="#f20040" d="M 280.007812 434.195312 L 294.980469 434.195312 L 294.980469 449.167969 L 280.007812 449.167969 Z M 280.007812 434.195312 " fill-opacity="1" fill-rule="nonzero"/><path fill="#f20040" d="M 309.953125 434.195312 L 324.925781 434.195312 L 324.925781 449.167969 L 309.953125 449.167969 Z M 309.953125 434.195312 " fill-opacity="1" fill-rule="nonzero"/><path fill="#f20040" d="M 339.898438 434.195312 L 354.871094 434.195312 L 354.871094 449.167969 L 339.898438 449.167969 Z M 339.898438 434.195312 " fill-opacity="1" fill-rule="nonzero"/><path fill="#f20040" d="M 369.84375 434.195312 L 384.816406 434.195312 L 384.816406 449.167969 L 369.84375 449.167969 Z M 369.84375 434.195312 " fill-opacity="1" fill-rule="nonzero"/><path fill="#f20040" d="M 399.789062 434.195312 L 414.757812 434.195312 L 414.757812 449.167969 L 399.789062 449.167969 Z M 399.789062 434.195312 " fill-opacity="1" fill-rule="nonzero"/><path fill="#f20040" d="M 429.730469 434.195312 L 444.703125 434.195312 L 444.703125 449.167969 L 429.730469 449.167969 Z M 429.730469 434.195312 " fill-opacity="1" fill-rule="nonzero"/><path fill="#f20040" d="M 459.675781 434.195312 L 474.648438 434.195312 L 474.648438 449.167969 L 459.675781 449.167969 Z M 459.675781 434.195312 " fill-opacity="1" fill-rule="nonzero"/><path fill="#f20040" d="M 489.621094 434.195312 L 504.59375 434.195312 L 504.59375 449.167969 L 489.621094 449.167969 Z M 489.621094 434.195312 " fill-opacity="1" fill-rule="nonzero"/><path fill="#f20040" d="M 519.566406 434.195312 L 534.539062 434.195312 L 534.539062 449.167969 L 519.566406 449.167969 Z M 519.566406 434.195312 " fill-opacity="1" fill-rule="nonzero"/><path fill="#ff7f07" d="M 70.398438 359.335938 L 85.371094 359.335938 L 85.371094 374.308594 L 70.398438 374.308594 Z M 70.398438 359.335938 " fill-opacity="1" fill-rule="nonzero"/><path fill="#ff7f07" d="M 100.34375 359.335938 L 115.3125 359.335938 L 115.3125 374.308594 L 100.34375 374.308594 Z M 100.34375 359.335938 " fill-opacity="1" fill-rule="nonzero"/><path fill="#ff7f07" d="M 130.285156 359.335938 L 145.257812 359.335938 L 145.257812 374.308594 L 130.285156 374.308594 Z M 130.285156 359.335938 " fill-opacity="1" fill-rule="nonzero"/><path fill="#ff7f07" d="M 160.230469 359.335938 L 175.203125 359.335938 L 175.203125 374.308594 L 160.230469 374.308594 Z M 160.230469 359.335938 " fill-opacity="1" fill-rule="nonzero"/><path fill="#ff7f07" d="M 190.175781 359.335938 L 205.148438 359.335938 L 205.148438 374.308594 L 190.175781 374.308594 Z M 190.175781 359.335938 " fill-opacity="1" fill-rule="nonzero"/><path fill="#ff7f07" d="M 220.121094 359.335938 L 235.09375 359.335938 L 235.09375 374.308594 L 220.121094 374.308594 Z M 220.121094 359.335938 " fill-opacity="1" fill-rule="nonzero"/><path fill="#ff7f07" d="M 250.066406 359.335938 L 265.035156 359.335938 L 265.035156 374.308594 L 250.066406 374.308594 Z M 250.066406 359.335938 " fill-opacity="1" fill-rule="nonzero"/><path fill="#ff7f07" d="M 280.007812 359.335938 L 294.980469 359.335938 L 294.980469 374.308594 L 280.007812 374.308594 Z M 280.007812 359.335938 " fill-opacity="1" fill-rule="nonzero"/><path fill="#ff7f07" d="M 309.953125 359.335938 L 324.925781 359.335938 L 324.925781 374.308594 L 309.953125 374.308594 Z M 309.953125 359.335938 " fill-opacity="1" fill-rule="nonzero"/><path fill="#ff7f07" d="M 339.898438 359.335938 L 354.871094 359.335938 L 354.871094 374.308594 L 339.898438 374.308594 Z M 339.898438 359.335938 " fill-opacity="1" fill-rule="nonzero"/><path fill="#ff7f07" d="M 369.84375 359.335938 L 384.816406 359.335938 L 384.816406 374.308594 L 369.84375 374.308594 Z M 369.84375 359.335938 " fill-opacity="1" fill-rule="nonzero"/><path fill="#ff7f07" d="M 399.789062 359.335938 L 414.757812 359.335938 L 414.757812 374.308594 L 399.789062 374.308594 Z M 399.789062 359.335938 " fill-opacity="1" fill-rule="nonzero"/><path fill="#ff7f07" d="M 429.730469 359.335938 L 444.703125 359.335938 L 444.703125 374.308594 L 429.730469 374.308594 Z M 429.730469 359.335938 " fill-opacity="1" fill-rule="nonzero"/><path fill="#ff7f07" d="M 459.675781 359.335938 L 474.648438 359.335938 L 474.648438 374.308594 L 459.675781 374.308594 Z M 459.675781 359.335938 " fill-opacity="1" fill-rule="nonzero"/><path fill="#ff7f07" d="M 489.621094 359.335938 L 504.59375 359.335938 L 504.59375 374.308594 L 489.621094 374.308594 Z M 489.621094 359.335938 " fill-opacity="1" fill-rule="nonzero"/><path fill="#ff7f07" d="M 519.566406 359.335938 L 534.539062 359.335938 L 534.539062 374.308594 L 519.566406 374.308594 Z M 519.566406 359.335938 " fill-opacity="1" fill-rule="nonzero"/><path fill="#ff7f07" d="M 549.511719 359.335938 L 564.480469 359.335938 L 564.480469 374.308594 L 549.511719 374.308594 Z M 549.511719 359.335938 " fill-opacity="1" fill-rule="nonzero"/><path fill="#ff0070" d="M 175.203125 479.113281 L 190.175781 479.113281 L 190.175781 494.085938 L 175.203125 494.085938 Z M 175.203125 479.113281 " fill-opacity="1" fill-rule="nonzero"/><path fill="#ff0070" d="M 205.148438 479.113281 L 220.121094 479.113281 L 220.121094 494.085938 L 205.148438 494.085938 Z M 205.148438 479.113281 " fill-opacity="1" fill-rule="nonzero"/><path fill="#ff0070" d="M 235.09375 479.113281 L 250.066406 479.113281 L 250.066406 494.085938 L 235.09375 494.085938 Z M 235.09375 479.113281 " fill-opacity="1" fill-rule="nonzero"/><path fill="#ff0070" d="M 265.035156 479.113281 L 280.007812 479.113281 L 280.007812 494.085938 L 265.035156 494.085938 Z M 265.035156 479.113281 " fill-opacity="1" fill-rule="nonzero"/><path fill="#ff0070" d="M 294.980469 479.113281 L 309.953125 479.113281 L 309.953125 494.085938 L 294.980469 494.085938 Z M 294.980469 479.113281 " fill-opacity="1" fill-rule="nonzero"/><path fill="#ff0070" d="M 324.925781 479.113281 L 339.898438 479.113281 L 339.898438 494.085938 L 324.925781 494.085938 Z M 324.925781 479.113281 " fill-opacity="1" fill-rule="nonzero"/><path fill="#ff0070" d="M 354.871094 479.113281 L 369.84375 479.113281 L 369.84375 494.085938 L 354.871094 494.085938 Z M 354.871094 479.113281 " fill-opacity="1" fill-rule="nonzero"/><path fill="#ff0070" d="M 384.816406 479.113281 L 399.789062 479.113281 L 399.789062 494.085938 L 384.816406 494.085938 Z M 384.816406 479.113281 " fill-opacity="1" fill-rule="nonzero"/><path fill="#ff0070" d="M 414.757812 479.113281 L 429.730469 479.113281 L 429.730469 494.085938 L 414.757812 494.085938 Z M 414.757812 479.113281 " fill-opacity="1" fill-rule="nonzero"/><path fill="#ff0070" d="M 444.703125 479.113281 L 459.675781 479.113281 L 459.675781 494.085938 L 444.703125 494.085938 Z M 444.703125 479.113281 " fill-opacity="1" fill-rule="nonzero"/><path fill="#ff0070" d="M 474.648438 479.113281 L 489.621094 479.113281 L 489.621094 494.085938 L 474.648438 494.085938 Z M 474.648438 479.113281 " fill-opacity="1" fill-rule="nonzero"/><path fill="#ffd100" d="M 70.398438 269.5 L 85.371094 269.5 L 85.371094 284.472656 L 70.398438 284.472656 Z M 70.398438 269.5 " fill-opacity="1" fill-rule="nonzero"/><path fill="#ffd100" d="M 100.34375 269.5 L 115.3125 269.5 L 115.3125 284.472656 L 100.34375 284.472656 Z M 100.34375 269.5 " fill-opacity="1" fill-rule="nonzero"/><path fill="#ffd100" d="M 130.285156 269.5 L 145.257812 269.5 L 145.257812 284.472656 L 130.285156 284.472656 Z M 130.285156 269.5 " fill-opacity="1" fill-rule="nonzero"/><path fill="#ffd100" d="M 160.230469 269.5 L 175.203125 269.5 L 175.203125 284.472656 L 160.230469 284.472656 Z M 160.230469 269.5 " fill-opacity="1" fill-rule="nonzero"/><path fill="#ffd100" d="M 190.175781 269.5 L 205.148438 269.5 L 205.148438 284.472656 L 190.175781 284.472656 Z M 190.175781 269.5 " fill-opacity="1" fill-rule="nonzero"/><path fill="#ffd100" d="M 220.121094 269.5 L 235.09375 269.5 L 235.09375 284.472656 L 220.121094 284.472656 Z M 220.121094 269.5 " fill-opacity="1" fill-rule="nonzero"/><path fill="#ffd100" d="M 250.066406 269.5 L 265.035156 269.5 L 265.035156 284.472656 L 250.066406 284.472656 Z M 250.066406 269.5 " fill-opacity="1" fill-rule="nonzero"/><path fill="#ffd100" d="M 280.007812 269.5 L 294.980469 269.5 L 294.980469 284.472656 L 280.007812 284.472656 Z M 280.007812 269.5 " fill-opacity="1" fill-rule="nonzero"/><path fill="#ffd100" d="M 309.953125 269.5 L 324.925781 269.5 L 324.925781 284.472656 L 309.953125 284.472656 Z M 309.953125 269.5 " fill-opacity="1" fill-rule="nonzero"/><path fill="#ffd100" d="M 339.898438 269.5 L 354.871094 269.5 L 354.871094 284.472656 L 339.898438 284.472656 Z M 339.898438 269.5 " fill-opacity="1" fill-rule="nonzero"/><path fill="#ffd100" d="M 369.84375 269.5 L 384.816406 269.5 L 384.816406 284.472656 L 369.84375 284.472656 Z M 369.84375 269.5 " fill-opacity="1" fill-rule="nonzero"/><path fill="#ffd100" d="M 399.789062 269.5 L 414.757812 269.5 L 414.757812 284.472656 L 399.789062 284.472656 Z M 399.789062 269.5 " fill-opacity="1" fill-rule="nonzero"/><path fill="#ffd100" d="M 429.730469 269.5 L 444.703125 269.5 L 444.703125 284.472656 L 429.730469 284.472656 Z M 429.730469 269.5 " fill-opacity="1" fill-rule="nonzero"/><path fill="#ffd100" d="M 459.675781 269.5 L 474.648438 269.5 L 474.648438 284.472656 L 459.675781 284.472656 Z M 459.675781 269.5 " fill-opacity="1" fill-rule="nonzero"/><path fill="#ffd100" d="M 489.621094 269.5 L 504.59375 269.5 L 504.59375 284.472656 L 489.621094 284.472656 Z M 489.621094 269.5 " fill-opacity="1" fill-rule="nonzero"/><path fill="#ffd100" d="M 519.566406 269.5 L 534.539062 269.5 L 534.539062 284.472656 L 519.566406 284.472656 Z M 519.566406 269.5 " fill-opacity="1" fill-rule="nonzero"/><path fill="#ffd100" d="M 549.511719 269.5 L 564.480469 269.5 L 564.480469 284.472656 L 549.511719 284.472656 Z M 549.511719 269.5 " fill-opacity="1" fill-rule="nonzero"/><g clip-path="url(#de36e80457)"><path fill="#ffd100" d="M 579.453125 269.5 L 594.425781 269.5 L 594.425781 284.472656 L 579.453125 284.472656 Z M 579.453125 269.5 " fill-opacity="1" fill-rule="nonzero"/></g><g fill="#ffd100" fill-opacity="1"><g transform="translate(680.451728, 233.046738)"><g><path d="M 29.929688 -119.710938 L 9.976562 -119.710938 L 9.976562 -79.808594 L 29.929688 -79.808594 Z M 9.976562 -19.953125 L 29.929688 -19.953125 L 29.929688 -39.902344 L 9.976562 -39.902344 Z M 29.929688 0 L 89.785156 0 L 89.785156 -19.953125 L 29.929688 -19.953125 Z M 29.929688 -59.855469 L 89.785156 -59.855469 L 89.785156 -79.808594 L 29.929688 -79.808594 Z M 29.929688 -119.710938 L 89.785156 -119.710938 L 89.785156 -139.664062 L 29.929688 -139.664062 Z M 89.785156 -19.953125 L 109.734375 -19.953125 L 109.734375 -59.855469 L 89.785156 -59.855469 Z M 89.785156 -99.761719 L 109.734375 -99.761719 L 109.734375 -119.710938 L 89.785156 -119.710938 Z M 89.785156 -99.761719 "/></g></g></g><g fill="#ffd100" fill-opacity="1"><g transform="translate(844.657228, 233.046738)"><g><path d="M 89.785156 -19.953125 L 29.929688 -19.953125 L 29.929688 0 L 89.785156 0 Z M 9.976562 -19.953125 L 29.929688 -19.953125 L 29.929688 -139.664062 L 9.976562 -139.664062 Z M 89.785156 -19.953125 L 109.734375 -19.953125 L 109.734375 -139.664062 L 89.785156 -139.664062 Z M 89.785156 -19.953125 "/></g></g></g><g fill="#ffd100" fill-opacity="1"><g transform="translate(1008.862727, 233.046738)"><g><path d="M 89.785156 0 L 109.734375 0 L 109.734375 -139.664062 L 89.785156 -139.664062 L 89.785156 -119.710938 L 69.832031 -119.710938 L 69.832031 -99.761719 L 89.785156 -99.761719 Z M 9.976562 0 L 29.929688 0 L 29.929688 -99.761719 L 49.878906 -99.761719 L 49.878906 -119.710938 L 29.929688 -119.710938 L 29.929688 -139.664062 L 9.976562 -139.664062 Z M 49.878906 -79.808594 L 69.832031 -79.808594 L 69.832031 -99.761719 L 49.878906 -99.761719 Z M 49.878906 -79.808594 "/></g></g></g><g fill="#ffd100" fill-opacity="1"><g transform="translate(1173.068211, 233.046738)"><g><path d="M 89.785156 0 L 109.734375 0 L 109.734375 -139.664062 L 89.785156 -139.664062 L 89.785156 -119.710938 L 69.832031 -119.710938 L 69.832031 -99.761719 L 89.785156 -99.761719 Z M 9.976562 0 L 29.929688 0 L 29.929688 -99.761719 L 49.878906 -99.761719 L 49.878906 -119.710938 L 29.929688 -119.710938 L 29.929688 -139.664062 L 9.976562 -139.664062 Z M 49.878906 -79.808594 L 69.832031 -79.808594 L 69.832031 -99.761719 L 49.878906 -99.761719 Z M 49.878906 -79.808594 "/></g></g></g><g fill="#ffd100" fill-opacity="1"><g transform="translate(1337.273718, 233.046738)"><g><path d="M 9.976562 0 L 109.535156 0 L 109.535156 -19.953125 L 29.929688 -19.953125 L 29.929688 -59.855469 L 89.785156 -59.855469 L 89.785156 -79.808594 L 29.929688 -79.808594 L 29.929688 -119.710938 L 109.734375 -119.710938 L 109.734375 -139.664062 L 9.976562 -139.664062 Z M 9.976562 0 "/></g></g></g><g fill="#ffd100" fill-opacity="1"><g transform="translate(1501.479224, 233.046738)"><g><path d="M 9.976562 0 L 29.929688 0 L 29.929688 -59.855469 L 49.878906 -59.855469 L 49.878906 -39.902344 L 69.832031 -39.902344 L 69.832031 -59.855469 L 89.785156 -59.855469 L 89.785156 -79.808594 L 29.929688 -79.808594 L 29.929688 -119.710938 L 89.785156 -119.710938 L 89.785156 -139.664062 L 9.976562 -139.664062 Z M 69.832031 -19.953125 L 89.785156 -19.953125 L 89.785156 -39.902344 L 69.832031 -39.902344 Z M 89.785156 0 L 109.734375 0 L 109.734375 -19.953125 L 89.785156 -19.953125 Z M 89.785156 -79.808594 L 109.734375 -79.808594 L 109.734375 -119.710938 L 89.785156 -119.710938 Z M 89.785156 -79.808594 "/></g></g></g><g fill="#ffbd59" fill-opacity="1"><g transform="translate(674.537396, 481.073524)"><g><path d="M 39.691406 -158.757812 L 13.230469 -158.757812 L 13.230469 -105.839844 L 39.691406 -105.839844 Z M 13.230469 -26.460938 L 39.691406 -26.460938 L 39.691406 -52.917969 L 13.230469 -52.917969 Z M 39.691406 0 L 119.070312 0 L 119.070312 -26.460938 L 39.691406 -26.460938 Z M 39.691406 -79.378906 L 119.070312 -79.378906 L 119.070312 -105.839844 L 39.691406 -105.839844 Z M 39.691406 -158.757812 L 119.070312 -158.757812 L 119.070312 -185.21875 L 39.691406 -185.21875 Z M 119.070312 -26.460938 L 145.53125 -26.460938 L 145.53125 -79.378906 L 119.070312 -79.378906 Z M 119.070312 -132.300781 L 145.53125 -132.300781 L 145.53125 -158.757812 L 119.070312 -158.757812 Z M 119.070312 -132.300781 "/></g></g></g><g fill="#ffbd59" fill-opacity="1"><g transform="translate(833.296621, 481.073524)"><g><path d="M 119.070312 -26.460938 L 39.691406 -26.460938 L 39.691406 0 L 119.070312 0 Z M 13.230469 -26.460938 L 39.691406 -26.460938 L 39.691406 -185.21875 L 13.230469 -185.21875 Z M 119.070312 -26.460938 L 145.53125 -26.460938 L 145.53125 -185.21875 L 119.070312 -185.21875 Z M 119.070312 -26.460938 "/></g></g></g><g fill="#ffbd59" fill-opacity="1"><g transform="translate(992.055845, 481.073524)"><g><path d="M 119.070312 0 L 145.53125 0 L 145.53125 -185.21875 L 119.070312 -185.21875 L 119.070312 -105.839844 L 92.609375 -105.839844 L 92.609375 -79.378906 L 119.070312 -79.378906 Z M 13.230469 0 L 39.691406 0 L 39.691406 -132.300781 L 66.148438 -132.300781 L 66.148438 -158.757812 L 39.691406 -158.757812 L 39.691406 -185.21875 L 13.230469 -185.21875 Z M 66.148438 -105.839844 L 92.609375 -105.839844 L 92.609375 -132.300781 L 66.148438 -132.300781 Z M 66.148438 -105.839844 "/></g></g></g><g fill="#ffbd59" fill-opacity="1"><g transform="translate(1150.815086, 481.073524)"><g><path d="M 39.691406 -158.757812 L 13.230469 -158.757812 L 13.230469 -105.839844 L 39.691406 -105.839844 Z M 13.230469 -26.460938 L 39.691406 -26.460938 L 39.691406 -52.917969 L 13.230469 -52.917969 Z M 39.691406 0 L 119.070312 0 L 119.070312 -26.460938 L 39.691406 -26.460938 Z M 39.691406 -79.378906 L 119.070312 -79.378906 L 119.070312 -105.839844 L 39.691406 -105.839844 Z M 39.691406 -158.757812 L 119.070312 -158.757812 L 119.070312 -185.21875 L 39.691406 -185.21875 Z M 119.070312 -26.460938 L 145.53125 -26.460938 L 145.53125 -79.378906 L 119.070312 -79.378906 Z M 119.070312 -132.300781 L 145.53125 -132.300781 L 145.53125 -158.757812 L 119.070312 -158.757812 Z M 119.070312 -132.300781 "/></g></g></g><g fill="#ffbd59" fill-opacity="1"><g transform="translate(1309.574303, 481.073524)"><g><path d="M 13.230469 0 L 145.265625 0 L 145.265625 -26.460938 L 39.691406 -26.460938 L 39.691406 -79.378906 L 119.070312 -79.378906 L 119.070312 -105.839844 L 39.691406 -105.839844 L 39.691406 -158.757812 L 145.53125 -158.757812 L 145.53125 -185.21875 L 13.230469 -185.21875 Z M 13.230469 0 "/></g></g></g><g fill="#ffbd59" fill-opacity="1"><g transform="translate(1468.33352, 481.073524)"><g><path d="M 66.148438 0 L 92.609375 0 L 92.609375 -158.757812 L 145.53125 -158.757812 L 145.53125 -185.21875 L 13.230469 -185.21875 L 13.230469 -158.757812 L 66.148438 -158.757812 Z M 66.148438 0 "/></g></g></g></svg>